<?xml version="1.0" standalone="no"?>
<!DOCTYPE svg PUBLIC "-//W3C//DTD SVG 1.1//EN" "http://www.w3.org/Graphics/SVG/1.1/DTD/svg11.dtd" >
<svg xmlns="http://www.w3.org/2000/svg">
<metadata>Generated by IcoMoon</metadata>
<defs>
<font id="icomoon" horiz-adv-x="1024">
<font-face units-per-em="1024" ascent="960" descent="-64" />
<missing-glyph horiz-adv-x="1024" />
<glyph unicode="&#x20;" horiz-adv-x="512" d="" />
<glyph unicode="&#xe900;" glyph-name="zoom2" d="M684.303 315.95l-17.672 17.672c58.907 63.816 93.269 152.176 93.269 245.446 0.982 211.083-168.867 380.932-379.95 380.932s-379.95-169.849-379.95-379.95 169.849-379.95 379.95-379.95c93.269 0 181.63 34.362 245.446 93.269l17.672-17.672v-47.126l292.571-292.571 87.379 87.379-291.59 292.571h-47.126zM381.914 270.788c-170.83 0-308.28 138.431-308.28 308.28 0 170.83 138.431 308.28 308.28 308.28 170.83 0 308.28-138.431 308.28-308.28s-138.431-308.28-308.28-308.28z" />
<glyph unicode="&#xe901;" glyph-name="users" horiz-adv-x="1729" d="M1689.554 257.776c-69.672 44.92-159.513 76.090-190.682 81.59-16.501 2.75-16.501 46.754-16.501 46.754s0.917 1.833 3.667 4.584c55.921 2.75 106.342 8.251 151.262 15.585-8.251 2.75-20.168 9.167-31.169 20.168-18.335 18.335-22.919 41.253-25.669 55.004-12.834 71.506 7.334 139.345-5.5 193.432-16.501 66.922-87.090 132.927-164.097 133.844-85.257 0.917-164.097-77.923-174.181-149.429-6.417-45.837 11.918-105.425 4.584-173.264-0.917-11.918-4.584-33.919-20.168-54.088-10.084-12.834-21.085-21.085-29.336-25.669 42.17-6.417 89.841-11.918 141.178-14.668 2.75-2.75 3.667-4.584 3.667-4.584s0-44.92-16.501-46.754c-26.585-4.584-97.175-28.419-161.346-63.255 56.838-22.919 120.093-54.088 176.014-89.841 15.585-10.084 28.419-22.002 40.337-35.753h355.696v34.836c-1.833 28.419-16.501 55.921-41.253 71.506zM1321.024 109.264c-111.842 72.423-258.521 123.76-308.025 131.094-26.585 4.584-26.585 76.090-26.585 76.090s63.255 76.090 79.756 178.765c44.92 0 73.339 109.092 27.502 147.595 2.75 40.337 58.671 317.192-225.518 317.192s-228.269-276.856-226.435-317.192c-44.92-38.503-17.418-147.595 27.502-147.595 16.501-102.675 79.756-178.765 79.756-178.765s-0.917-72.423-26.585-76.090c-50.421-8.251-201.683-60.505-316.276-133.844-39.42-25.669-63.255-69.672-63.255-116.426v-54.088h1041.418v55.921c0.917 47.671-22.919 91.674-63.255 117.343zM381.364 184.437c59.588 38.503 127.427 70.589 187.932 94.424-62.338 33.919-129.261 56.838-154.929 60.505-16.501 2.75-16.501 46.754-16.501 46.754s0.917 1.833 3.667 4.584c55.921 2.75 106.342 8.251 151.262 15.585-8.251 2.75-20.168 9.167-31.169 20.168-18.335 18.335-22.919 41.253-25.669 55.004-12.834 71.506 7.334 139.345-5.5 193.432-16.501 66.922-87.090 132.927-164.097 133.844-85.257 0.917-164.097-77.923-174.181-149.429-6.417-45.837 11.918-105.425 4.584-173.264-0.917-11.918-4.584-33.919-20.168-54.088-10.084-12.834-21.085-21.085-29.336-25.669 42.17-6.417 89.841-11.918 141.178-14.668 2.75-2.75 3.667-4.584 3.667-4.584s0-44.92-16.501-46.754c-31.169-4.584-124.677-37.586-195.266-82.507-25.669-17.418-40.337-44.92-40.337-73.339v-33.919h343.778c10.084 12.834 22.919 23.835 37.586 33.919z" />
<glyph unicode="&#xe902;" glyph-name="zoom" horiz-adv-x="989" d="M412.971 134.058c85.684 0 167.155 25.284 237.388 74.447l245.816-255.649c9.833-11.237 23.879-16.856 39.331-16.856 14.047 0 26.689 5.619 37.926 15.451 21.070 21.070 22.475 54.782 1.405 75.852l-243.007 252.84c63.21 74.447 96.922 168.56 96.922 265.481-2.809 228.96-188.225 414.376-415.781 414.376s-412.971-185.416-412.971-412.971c0-227.556 185.416-412.971 412.971-412.971zM412.971 851.841c168.56 0 306.217-137.657 306.217-304.812 0-168.56-137.657-304.812-306.217-304.812s-304.812 137.657-304.812 304.812c0 168.56 136.252 304.812 304.812 304.812z" />
<glyph unicode="&#xe903;" glyph-name="user2" horiz-adv-x="894" d="M447.033 452.64c123.746 0 207.275 143.082 215.782 253.68 0.773 13.148 9.281 147.722-85.076 215.782-51.045 37.124-109.051 37.897-130.707 37.897-19.335 0-85.076 0-140.761-44.858-84.302-68.060-77.341-185.619-75.021-208.822 9.281-109.051 91.263-253.68 215.782-253.68zM580.060 362.924c-17.015-75.021-51.819-148.495-98.997-171.698v126.066l46.405 37.124c18.562 14.695 7.734 44.085-15.468 44.085h-129.934c-23.202 0-34.030-29.39-15.468-44.085l46.405-37.124v-125.293c-46.405 25.523-80.435 98.224-96.677 172.471l-316.326-84.302c54.139-202.634 238.211-344.169 447.807-344.169 207.275 0 389.801 138.441 446.26 337.982l-314.006 88.943z" />
<glyph unicode="&#xe904;" glyph-name="user2-circle" d="M512.324 960c-283.041 0-512.324-229.283-512.324-512.324s229.283-512.324 512.324-512.324 512.324 229.283 512.324 512.324c-0.648 283.041-229.93 512.324-512.324 512.324zM394.444 838.882c46.634 37.566 101.688 37.566 117.88 37.566 18.135 0 66.065-0.648 109.46-31.737 79.666-56.997 72.541-169.695 71.246-180.706-7.125-92.62-77.075-212.443-180.706-212.443-104.278 0-172.934 121.118-180.706 212.443-1.943 19.431-7.772 117.88 62.826 174.877zM512.972 19.552c-175.524 0-329.675 118.528-375.013 288.223l264.906 70.598c13.602-62.178 42.1-123.709 81.609-144.435v104.278l-38.861 31.089c-15.545 12.306-6.477 36.918 12.954 36.918h108.812c19.431 0 28.498-24.612 12.954-36.918l-38.861-31.089v-105.574c39.509 19.431 69.303 80.961 82.904 143.787l262.963-73.837c-47.929-167.104-200.784-283.041-374.366-283.041z" />
<glyph unicode="&#xe905;" glyph-name="print" horiz-adv-x="992" d="M960.831 651.636h-146.286v276.779c0 17.455-14.13 31.584-31.584 31.584h-573.506c-17.455 0-31.584-14.13-31.584-31.584v-276.779h-146.286c-17.455 0-31.584-14.13-31.584-31.584v-478.753c0-17.455 14.13-31.584 31.584-31.584h146.286v-142.13c0-17.455 14.13-31.584 31.584-31.584h573.506c17.455 0 31.584 14.13 31.584 31.584v142.13h146.286c17.455 0 31.584 14.13 31.584 31.584v478.753c0 17.455-14.13 31.584-31.584 31.584zM209.455 928.416h573.506v-276.779h-573.506v276.779zM782.961-32.416h-573.506v386.494h573.506v-386.494zM960.831 141.299h-146.286v212.779c0 17.455-14.13 31.584-31.584 31.584h-573.506c-17.455 0-31.584-14.13-31.584-31.584v-211.948h-146.286v477.922h929.247v-478.753zM288.416 256h437.195v-31.584h-437.195v31.584zM288.416 99.74h437.195v-31.584h-437.195v31.584zM288.416 176.208h340.779v-31.584h-340.779v31.584zM839.481 477.922h58.182c10.805 0 19.117 8.312 19.117 19.117v58.182c0 10.805-8.312 19.117-19.117 19.117h-58.182c-10.805 0-19.117-8.312-19.117-19.117v-58.182c0-10.805 9.143-19.117 19.117-19.117zM851.948 542.753h33.247v-33.247h-33.247v33.247z" />
<glyph unicode="&#xe906;" glyph-name="tools" horiz-adv-x="1145" d="M1132.936 776.624l-105.305-105.305c-47.206-47.206-124.369-47.206-171.574 0s-47.206 124.369 0 171.574l105.305 105.305c-23.603 7.262-49.021 10.894-75.348 10.894-142.525 0.908-257.816-114.383-257.816-256.908s115.291-257.816 257.816-257.816c142.525 0 257.816 115.291 257.816 257.816 0.908 25.418-3.631 50.837-10.894 74.44zM162.496 185.645c-57.191-57.191-57.191-149.787 0-206.979s149.787-57.191 206.979 0l147.972 147.972c-68.085 68.993-137.078 137.986-206.071 206.979l-148.879-147.972zM268.709 41.305c-24.511 0-44.482 19.972-44.482 44.482s19.972 44.482 44.482 44.482c24.511 0 44.482-19.972 44.482-44.482s-19.064-44.482-44.482-44.482zM578.27 611.404l-236.028-235.121 380.369-380.369c62.638-62.638 163.404-62.638 226.043 0l9.078 9.078c62.638 62.638 62.638 163.404 0 226.043l-379.461 380.369zM806.128 58.553c-7.262-7.262-19.972-7.262-27.234 0l-321.362 321.362c-7.262 7.262-7.262 19.972 0 27.234s19.972 7.262 27.234 0l321.362-321.362c7.262-7.262 7.262-19.064 0-27.234zM895.092 148.426c-7.262-7.262-19.972-7.262-27.234 0l-321.362 321.362c-7.262 7.262-7.262 19.972 0 27.234s19.972 7.262 27.234 0l321.362-321.362c8.17-7.262 8.17-19.972 0-27.234zM438.468 489.759c13.617 13.617 14.525 34.496 1.816 47.206l-275.972 275.972c0 9.986-3.631 19.972-11.801 28.142l-75.348 75.348c-16.34 16.34-44.482 15.433-62.638-2.723s-19.064-46.298-2.723-62.638l75.348-75.348c7.262-7.262 17.248-10.894 28.142-11.801l275.972-275.972c12.709-12.709 33.589-11.801 47.206 1.816z" />
<glyph unicode="&#xe907;" glyph-name="user" horiz-adv-x="1041" d="M1040.934-8.218c0 47.813-24.903 91.642-64.747 117.541-111.564 72.716-256.996 123.518-306.802 131.486-25.899 3.984-26.895 76.7-26.895 76.7s63.751 76.7 79.689 178.304c44.825 0 72.716 108.576 27.891 147.424 1.992 39.844 57.774 316.763-226.117 316.763s-228.109-276.918-226.117-316.763c-44.825-37.852-16.934-147.424 27.891-147.424 16.934-102.599 79.689-178.304 79.689-178.304s-0.996-71.72-26.895-76.7c-49.805-7.969-201.214-60.763-315.767-133.479-39.844-24.903-62.755-69.728-62.755-116.545v-54.786h1040.934v55.782z" />
<glyph unicode="&#xe908;" glyph-name="plus-thin-square" d="M863.741 960h-704.235c-88.029 0-159.506-71.477-159.506-159.506v-704.235c0-88.029 71.477-159.506 159.506-159.506h704.235c88.029 0 159.506 71.477 159.506 159.506v704.235c0.752 88.029-70.724 159.506-159.506 159.506zM865.246 419.785v0h-325.032v-325.032h-55.677v325.032h-325.784v55.677h325.032v325.784h55.677v-325.032h325.784v-56.429z" />
<glyph unicode="&#xe909;" glyph-name="plus-thin" d="M552.895 960h-81.789v-471.105h-471.105v-81.789h471.105v-471.105h81.789v471.105h471.105v81.789h-471.105z" />
<glyph unicode="&#xe90a;" glyph-name="plus-thin-outline" d="M540.215 801.246h-56.429v-325.032h-325.032v-56.429h325.032v-325.032h56.429v325.032h325.032v56.429h-325.032zM863.741 960h-704.235c-88.029 0-159.506-71.477-159.506-159.506v-704.235c0-88.029 71.477-159.506 159.506-159.506h704.235c88.029 0 159.506 71.477 159.506 159.506v704.235c0.752 88.029-70.724 159.506-159.506 159.506zM1001.428 96.259c0-75.991-61.696-137.687-137.687-137.687h-704.235c-75.991 0-137.687 61.696-137.687 137.687v704.235c0.752 75.239 62.448 136.935 137.687 136.935h704.235c75.991 0 137.687-61.696 137.687-137.687v-703.483z" />
<glyph unicode="&#xe90b;" glyph-name="plus" d="M602.353 538.353v421.647h-180.706v-421.647h-421.647v-180.706h421.647v-421.647h180.706v421.647h421.647v180.706z" />
<glyph unicode="&#xe90c;" glyph-name="plus-circle" d="M512-64c282.27 0 512 228.7 512 512s-229.73 512-512 512c-283.3 0-512-228.7-512-512 0-282.27 228.7-512 512-512zM223.549 521.143h215.308v215.308h146.286v-215.308h215.308v-146.286h-215.308v-215.308h-146.286v215.308h-215.308v146.286z" />
<glyph unicode="&#xe90d;" glyph-name="notification" d="M512-64c282.104 0 512 229.896 512 512s-229.896 512-512 512-512-229.896-512-512 229.896-512 512-512zM512 912.372c256.458 0 464.372-207.914 464.372-464.372s-207.914-464.372-464.372-464.372c-256.458 0-464.372 207.914-464.372 464.372s207.914 464.372 464.372 464.372zM488.186 715.449h47.628v-459.792h-47.628v459.792zM488.186 175.055h47.628v-48.544h-47.628v48.544z" />
<glyph unicode="&#xe90e;" glyph-name="phone" d="M1021.437 166.688c-2.563 8.971-21.787 21.787-55.109 38.448-8.971 5.126-21.787 12.816-39.73 21.787-16.661 8.971-32.040 17.942-46.138 25.632s-26.914 15.379-38.448 23.069c-1.282 1.282-7.69 5.126-17.942 12.816-10.253 6.408-19.224 12.816-25.632 15.379-6.408 3.845-14.098 5.126-20.506 5.126-10.253 0-21.787-6.408-35.885-20.506s-28.195-29.477-39.73-44.856c-11.534-16.661-24.35-30.758-38.448-44.856s-24.35-20.506-33.322-20.506c-3.845 0-10.253 1.282-16.661 3.845s-11.534 3.845-15.379 6.408c-3.845 1.282-8.971 5.126-17.942 10.253-7.69 5.126-12.816 7.69-14.098 8.971-66.643 34.603-123.034 76.896-170.453 124.315s-89.712 103.81-126.879 170.453c0 1.282-3.845 5.126-8.971 14.098-5.126 7.69-8.971 14.098-10.253 17.942s-3.845 8.971-6.408 15.379c-2.563 6.408-3.845 11.534-3.845 16.661 0 8.971 6.408 19.224 20.506 33.322s29.477 26.914 44.856 38.448c16.661 11.534 30.758 25.632 44.856 39.73s20.506 26.914 20.506 35.885c0 6.408-1.282 14.098-5.126 20.506-3.845 7.69-8.971 15.379-15.379 25.632s-11.534 16.661-12.816 17.942c-7.69 11.534-15.379 25.632-23.069 38.448-7.69 14.098-16.661 29.477-25.632 46.138-6.408 17.942-14.098 30.758-19.224 39.73-16.661 33.322-29.477 52.546-38.448 55.109-3.845 1.282-8.971 2.563-15.379 2.563-12.816 0-30.758-2.563-51.264-7.69s-37.166-10.253-49.982-15.379c-24.35-10.253-49.982-39.73-76.896-88.431-24.35-44.856-37.166-89.712-37.166-134.568 0-12.816 1.282-25.632 2.563-38.448s5.126-26.914 8.971-42.293c3.845-15.379 7.69-26.914 10.253-34.603s7.69-20.506 15.379-39.73c7.69-19.224 11.534-30.758 12.816-35.885 16.661-47.419 37.166-89.712 60.235-126.879 38.448-61.517 90.994-125.597 156.355-192.24 66.643-66.643 130.723-117.907 192.24-156.355 37.166-23.069 79.459-43.574 126.879-60.235 3.845-1.282 16.661-6.408 35.885-12.816 19.224-7.69 33.322-12.816 39.73-15.379 7.69-2.563 19.224-6.408 34.603-10.253s29.477-7.69 42.293-8.971c12.816-1.282 25.632-2.563 38.448-2.563 44.856 0 89.712 12.816 135.85 37.166 48.701 26.914 78.178 52.546 88.431 76.896 5.126 11.534 10.253 28.195 15.379 49.982 5.126 20.506 7.69 38.448 7.69 51.264 0 6.408-1.282 11.534-2.563 14.098z" />
<glyph unicode="&#xe90f;" glyph-name="money" horiz-adv-x="1135" d="M711.58 605.013h-338.924c-150.99-110.030-256.201-342.94-256.201-490.717 0-195.162 183.918-178.296 412.813-177.493-18.472 1.606-32.929 16.063-32.929 34.535v35.338h-106.014c-19.275 0-35.338 16.063-35.338 35.338s16.063 35.338 35.338 35.338h106.014v142.958h-35.338c-42.566 0-106.014 28.11-106.014 106.014v71.479c0 77.904 63.448 106.014 106.014 106.014h35.338v35.338c0 19.275 16.063 35.338 35.338 35.338s35.338-16.063 35.338-35.338v-35.338h106.014c19.275 0 35.338-16.063 35.338-35.338s-16.063-35.338-35.338-35.338h-105.211v-142.155h35.338c42.566 0 106.014-28.11 106.014-106.817v-70.676c0-77.904-63.448-106.817-106.014-106.817h-35.338v-35.338c0-18.472-14.456-32.929-32.929-34.535h7.228c235.319 0 425.663-20.882 425.663 177.493 0 148.58-105.211 381.49-256.201 490.717zM390.325 696.571c-16.866 0-30.519-13.653-30.519-30.519s13.653-30.519 30.519-30.519h304.389c16.866 0 30.519 13.653 30.519 30.519s-13.653 30.519-30.519 30.519h-304.389zM372.656 727.090h338.924c0 0 134.124 117.258 73.889 168.659-61.038 51.401-195.965-57.023-243.351-53.007-47.385-4.016-182.312 104.408-243.351 53.007-60.235-51.401 73.889-168.659 73.889-168.659zM213.635 808.207h10.441c-7.228 17.669-11.244 36.141-11.244 54.613 0 32.125 13.653 60.235 36.141 81.92-36.141 14.456-73.085 23.291-96.376 4.016-51.401-43.369 61.038-140.549 61.038-140.549zM860.963 808.207h61.038c0 0 111.636 97.983 61.038 140.549-31.322 26.504-85.936 2.409-132.518-19.275 13.653-19.275 21.685-41.763 21.685-66.66 0-18.472-4.819-36.944-11.244-54.613zM638.494 113.493v70.676c0 28.913-19.275 35.338-35.338 35.338h-35.338v-142.155h35.338c16.063 1.606 35.338 8.031 35.338 36.141zM294.751 632.32c-4.016 10.441-6.425 21.685-6.425 33.732 0 12.85 2.409 24.897 7.228 36.141-1.606 1.606-2.409 3.213-4.016 4.016h-78.707c-125.289-90.755-212.831-285.114-212.831-407.994 0-57.023 19.275-92.361 51.401-114.045 22.488 146.171 110.833 331.696 243.351 448.151zM228.091 782.507c-13.653 0-24.897-11.244-24.897-25.7 0-13.653 11.244-25.7 24.897-25.7h41.763c-12.047 15.26-24.094 32.125-34.535 50.598h-7.228zM425.663 397.804v-70.676c0-28.913 19.275-35.338 35.338-35.338h35.338v141.352h-35.338c-16.063-0.803-35.338-7.228-35.338-35.338zM932.442 757.609c0 13.653-11.244 25.7-24.897 25.7h-57.826c-9.638-18.472-21.685-35.338-34.535-50.598h92.361c13.653-0.803 24.897 10.441 24.897 24.897zM922.002 707.012h-129.305c-1.606-1.606-2.409-3.213-4.016-4.016 4.016-11.244 7.228-23.291 7.228-36.141 0-12.047-2.409-23.291-6.425-33.732 138.943-122.077 229.697-320.452 245.76-469.032 61.842 16.866 99.589 53.81 99.589 134.927 0 122.077-87.542 316.436-212.831 407.994z" />
<glyph unicode="&#xe910;" glyph-name="notes" horiz-adv-x="911" d="M325.243 839.716c10.287 0 18.992 8.705 18.992 18.992s-8.705 18.992-18.992 18.992c-10.287 0-18.992-8.705-18.992-18.992s8.705-18.992 18.992-18.992zM891.054 692.526l-44.315 44.315c-28.488 28.488-75.969 26.114-107.623-4.748l-87.839-88.631v93.379c0 33.236-26.906 60.142-60.142 60.142h-52.229v26.906c0 20.575-16.618 37.193-37.193 37.193h-53.811c-12.662 56.977-63.308 98.918-122.658 98.918s-109.997-41.941-121.867-98.918h-53.811c-20.575 0-37.193-16.618-37.193-37.193v-26.906h-52.229c-33.236 0-60.142-26.906-60.142-60.142v-740.699c0-33.236 26.906-60.142 60.142-60.142h530.992c33.236 0 60.142 26.906 60.142 60.142v353.731l235.029 235.821c30.862 30.862 33.236 78.343 4.748 106.832zM138.485 771.66v0 52.229c0 6.331 5.539 11.079 11.079 11.079h75.969l1.583 11.079c6.331 50.646 48.272 88.631 98.127 88.631s92.587-37.985 98.127-87.839l1.583-11.079h75.969c6.331 0 11.079-5.539 11.079-11.079v-97.335c0-6.331-4.748-11.079-11.079-11.079h-351.357c-6.331 0-11.079 4.748-11.079 11.079v44.315zM625.954-3.858c0-18.992-15.827-34.819-34.819-34.819h-530.992c-18.992 0-34.819 15.827-34.819 34.819v740.699c0 18.992 15.827 34.819 34.819 34.819h52.229v-45.107c0-20.575 16.618-37.193 37.193-37.193h352.148c20.575 0 37.193 16.618 37.193 37.193v45.107h52.229c18.992 0 34.819-15.827 34.819-34.819v-118.702l-346.609-345.818-28.488-178.053 175.679 30.862 198.628 198.628v-327.617zM303.085 254.121l106.040-106.040-126.615-22.158 20.575 128.198zM651.277 386.275v0l-221.577-221.577-110.788 110.788 375.097 375.097 110.788-110.788-153.521-153.521zM868.105 603.104l-45.898-45.898-110.788 110.788 45.898 45.898c20.575 20.575 53.020 22.949 71.221 4.748l44.315-44.315c18.201-18.201 16.618-49.855-4.748-71.221z" />
<glyph unicode="&#xe911;" glyph-name="minus-thin-outline" d="M540.215 476.215h-381.461v-56.429h706.492v56.429h-256.564zM863.741 960h-704.235c-88.029 0-159.506-71.477-159.506-159.506v-704.235c0-88.029 71.477-159.506 159.506-159.506h704.235c88.029 0 159.506 71.477 159.506 159.506v704.235c0.752 88.029-70.724 159.506-159.506 159.506zM1001.428 96.259c0-75.991-61.696-137.687-137.687-137.687h-704.235c-75.991 0-137.687 61.696-137.687 137.687v704.235c0.752 75.239 62.448 136.935 137.687 136.935h704.235c75.991 0 137.687-61.696 137.687-137.687v-703.483z" />
<glyph unicode="&#xe912;" glyph-name="minus-thin-square" d="M863.741 960h-704.235c-88.029 0-159.506-71.477-159.506-159.506v-704.235c0-88.029 71.477-159.506 159.506-159.506h704.235c88.029 0 159.506 71.477 159.506 159.506v704.235c0.752 88.029-70.724 159.506-159.506 159.506zM865.246 419.785v0h-706.492v55.677h706.492v-55.677z" />
<glyph unicode="&#xe913;" glyph-name="minus-circle" d="M512 960c-283.3 0-512-228.7-512-512 0-282.27 228.7-512 512-512 282.27 0 512 228.7 512 512s-229.73 512-512 512zM799.421 374.857h-575.871v146.286h576.901v-146.286z" />
<glyph unicode="&#xe914;" glyph-name="minus-thin" d="M716.473 488.895h-716.473v-81.789h1024v81.789z" />
<glyph unicode="&#xe915;" glyph-name="minus" d="M0 538.353h1024v-180.706h-1024v180.706z" />
<glyph unicode="&#xe916;" glyph-name="home" horiz-adv-x="1069" d="M1062.215 441.486l-512.434 512.434c-8.685 8.685-22.582 8.685-31.267 0l-512.434-512.434c-8.685-8.685-8.685-22.582 0-31.267s22.582-8.685 31.267 0l496.801 495.932 496.801-496.801c4.343-4.343 10.422-6.948 15.634-6.948 6.080 0 11.291 2.606 15.634 6.948 8.685 9.554 8.685 23.45 0 32.136zM912.828 403.271c-12.159 0-22.582-9.554-22.582-22.582v-401.262h-222.344v290.090c0 12.159-9.554 22.582-22.582 22.582h-222.344c-12.159 0-22.582-9.554-22.582-22.582v-289.221h-222.344v422.975c0 12.159-9.554 22.582-22.582 22.582-12.159 0-22.582-9.554-22.582-22.582v-445.557c0-12.159 9.554-22.582 22.582-22.582h267.508c12.159 0 22.582 9.554 22.582 22.582v289.221h178.049v-289.221c0-12.159 9.554-22.582 22.582-22.582h267.508c12.159 0 22.582 9.554 22.582 22.582v422.975c-0.869 13.028-11.291 22.582-23.45 22.582zM713.065 870.541h133.754v-133.754c0-12.159 9.554-22.582 22.582-22.582 12.159 0 22.582 9.554 22.582 22.582v156.336c0 12.159-9.554 22.582-22.582 22.582h-156.336c-12.159 0-22.582-9.554-22.582-22.582 0-12.159 9.554-22.582 22.582-22.582z" />
<glyph unicode="&#xe917;" glyph-name="menu" horiz-adv-x="1777" d="M0 960h1776.941v-112.941h-1776.941v112.941zM0 504.471h1776.941v-112.941h-1776.941v112.941zM0 48.941h1776.941v-112.941h-1776.941v112.941z" />
<glyph unicode="&#xe918;" glyph-name="microphone" horiz-adv-x="655" d="M654.689 431.213c0 20.384-15.588 35.972-35.972 35.972s-35.972-15.588-35.972-35.972c0-141.489-113.911-255.4-255.4-255.4-140.29 0-255.4 115.11-255.4 255.4 0 20.384-15.588 35.972-35.972 35.972s-35.972-15.588-35.972-35.972c0-167.869 124.703-308.159 291.372-326.145v-95.925h-130.698c-20.384 0-35.972-15.588-35.972-35.972s15.588-35.972 35.972-35.972h334.539c20.384 0 35.972 15.588 35.972 35.972s-15.588 35.972-35.972 35.972h-131.897v95.925c166.67 17.986 291.372 159.475 291.372 326.145zM327.344 229.77c110.314 0 201.443 89.93 201.443 201.443v327.344c0 111.513-89.93 201.443-201.443 201.443-110.314 0-201.443-89.93-201.443-201.443v-326.145c0-111.513 91.129-201.443 201.443-202.642z" />
<glyph unicode="&#xe919;" glyph-name="envelope" horiz-adv-x="1462" d="M977.039 507.353l485.259-507.434v903.99zM731.801 306.466l-177.406 144.795-493.085-515.261h1339.679l-493.085 515.261zM0 903.908v-903.99l485.259 507.434zM1393.162 960h-1324.025l662.665-540.046z" />
<glyph unicode="&#xe91a;" glyph-name="envelope-outline" horiz-adv-x="1574" d="M196.973-64h1180.535c108.27 0 196.973 88.703 196.973 196.973v630.054c0 108.27-88.703 196.973-196.973 196.973h-1180.535c-108.27 0-196.973-88.703-196.973-196.973v-630.054c0-108.27 88.703-196.973 196.973-196.973zM1377.508 33.834h-1180.535c-10.436 0-19.567 2.609-28.698 5.218l426.558 362.639 160.448-136.968c9.131-7.827 20.871-11.74 32.611-11.74s22.176 3.913 32.611 11.74l157.839 136.968 426.558-362.639c-7.827-1.304-16.958-5.218-27.394-5.218zM1475.343 763.027v-630.054c0-6.522-2.609-13.045-3.913-19.567l-418.731 352.204 416.122 326.115c3.913-9.131 6.522-18.262 6.522-28.698zM196.973 862.166h1180.535c6.522 0 11.74-2.609 18.262-3.913l-609.182-490.476-607.878 490.476c5.218 1.304 11.74 3.913 18.262 3.913zM97.834 763.027c0 10.436 2.609 19.567 5.218 28.698l416.122-326.115-418.731-352.204c-1.304 6.522-3.913 13.045-3.913 19.567v630.054z" />
<glyph unicode="&#xe91b;" glyph-name="envelope-outline2" horiz-adv-x="1523" d="M1415.831 960h-1308.761c-59.23 0-107.070-47.84-107.070-107.070v-809.86c0-59.23 47.84-107.070 107.070-107.070h1308.761c59.23 0 107.070 47.84 107.070 107.070v809.86c0 59.23-48.979 107.070-107.070 107.070zM1460.254 43.070c0-25.059-20.503-45.562-45.562-45.562h-1307.622c-25.059 0-45.562 20.503-45.562 45.562v809.86c0 25.059 20.503 45.562 45.562 45.562h1308.761c25.059 0 45.562-20.503 45.562-45.562v-809.86zM1299.648 701.437c-9.112 13.669-28.476 18.225-43.284 7.973l-495.484-333.74-494.345 333.74c-13.669 9.112-33.032 5.695-43.284-7.973-9.112-13.669-5.695-33.032 7.973-43.284l511.43-345.13c5.695-3.417 11.39-5.695 17.086-5.695 0 0 1.139 0 1.139 0s1.139 0 1.139 0c5.695 0 12.529 2.278 17.086 5.695l511.43 345.13c14.808 9.112 18.225 28.476 9.112 43.284zM476.12 400.73l-309.82-208.445c-13.669-9.112-18.225-28.476-7.973-43.284 5.695-9.112 15.947-13.669 26.198-13.669 5.695 0 12.529 2.278 17.086 5.695l309.82 208.445c13.669 9.112 18.225 28.476 7.973 43.284s-29.615 18.225-43.284 7.973zM1356.601 192.285l-309.82 208.445c-13.669 9.112-33.032 5.695-43.284-7.973-9.112-13.669-5.695-33.032 7.973-43.284l309.82-208.445c5.695-3.417 11.39-5.695 17.086-5.695 10.251 0 19.364 4.556 26.198 13.669 10.251 14.808 5.695 34.171-7.973 43.284z" />
<glyph unicode="&#xe91c;" glyph-name="electricity" horiz-adv-x="768" d="M392.5 625.399c-6.732 0-12.118-5.386-12.118-12.118v-114.451c0-6.732 5.386-12.118 12.118-12.118s12.118 5.386 12.118 12.118v114.451c0 6.732-5.386 12.118-12.118 12.118zM631.5 440.258c6.732 0 12.118 5.386 12.118 12.118v92.907c0 6.732-5.386 12.118-12.118 12.118s-12.118-5.386-12.118-12.118v-92.907c-0.673-6.732 5.386-12.118 12.118-12.118zM561.483 684.644h-94.254c-6.732 0-12.118-5.386-12.118-12.118s5.386-12.118 12.118-12.118h94.254c6.732 0 12.118 5.386 12.118 12.118s-5.386 12.118-12.118 12.118zM24.237 172.981v327.195c0 57.226 46.454 103.679 103.679 103.679h19.524c57.226 0 103.679-46.454 103.679-103.679v-436.26c0-70.69 57.226-127.916 127.916-127.916h19.524c70.69 0 127.916 57.226 127.916 127.916v185.815h47.127c10.772 0 19.524 8.752 19.524 19.524v27.603c61.265 12.118 107.719 70.017 107.719 139.361v230.249c24.91 11.445 67.324 37.702 67.324 77.423 0 5.386-0.673 10.772-1.346 16.158-1.346 6.059-6.059 10.099-12.118 10.099h-111.085v159.558c0 10.772-2.693 18.178-8.079 23.563-8.079 7.406-18.851 6.732-28.276 6.732-5.386 0-10.772 0-16.158 0-9.425 0.673-20.197 1.346-28.276-6.732-5.386-5.386-8.079-12.792-8.079-23.563v-159.558h-85.502v159.558c0 10.772-2.693 18.178-8.079 23.563-8.079 7.406-18.851 6.732-28.276 6.732-5.386 0-10.772 0-16.158 0-9.425 0.673-20.197 1.346-28.276-6.732-5.386-5.386-8.079-12.792-8.079-23.563v-159.558h-111.085c-6.059 0-10.772-4.039-12.118-10.099-0.673-4.713-1.346-10.099-1.346-15.485 0-40.394 28.949-74.057 67.324-82.135v-226.209c0-71.364 49.147-129.936 113.105-140.034v-26.256c0-10.772 8.752-19.524 19.524-19.524h47.127v-185.815c0-57.226-46.454-103.679-103.679-103.679h-19.524c-57.226 0-103.679 46.454-103.679 103.679v435.587c0 70.69-57.226 127.916-127.916 127.916h-20.197c-70.69 0-127.916-57.226-127.916-127.916v-327.195c0-6.732 5.386-12.118 12.118-12.118s12.118 5.386 12.118 12.118zM578.988 929.704c0 3.366 0 5.386 0 5.386 2.020 0.673 6.732 0 10.099 0 6.059 0 12.792 0 18.851 0 3.366 0 9.425 0.673 10.099 0.673 0 0 0.673-1.346 0.673-6.059v-159.558h-40.394v159.558zM404.618 929.704c0 3.366 0.673 5.386 0.673 5.386 2.020 0.673 6.732 0 10.099 0 6.059 0 12.792 0 18.851 0 3.366 0 9.425 0.673 10.099 0.673 0 0 0.673-1.346 0.673-6.059v-159.558h-40.394v159.558zM453.765 319.074c-58.572 0.673-106.372 53.186-106.372 117.144v224.189h63.285c6.732 0 12.118 5.386 12.118 12.118s-5.386 12.118-12.118 12.118h-71.364c-32.989 0-59.245 26.93-59.245 59.245 0 0.673 0 1.346 0 1.346h463.863c0-0.673 0-1.346 0-1.346 0-25.583-32.989-47.8-61.938-59.245h-68.671c-6.732 0-12.118-5.386-12.118-12.118s5.386-12.118 12.118-12.118h63.285v-224.189c0-62.611-45.78-113.778-102.333-117.144 0 0 0 0-0.673 0h-118.49c-0.673 0-1.346 0-1.346 0zM459.824 274.64v19.524h108.392c0 0 0 0 0 0v-19.524h-108.392z" />
<glyph unicode="&#xe91d;" glyph-name="document-circle" d="M511.64 960c-282.483 0-511.64-229.157-511.64-511.64s229.157-511.64 511.64-511.64c282.483 0 511.64 229.157 511.64 511.64 0.721 282.483-228.436 511.64-511.64 511.64zM287.527 165.157c-17.295 13.692-33.148 28.825-47.561 45.399v477.771c15.854 18.015 33.869 34.59 53.326 49.723-7.927-9.368-12.971-21.619-12.971-35.31v-510.198c-0.721-9.368 2.162-18.736 7.206-27.384zM604.6 98.86h-185.199c-33.869 9.368-66.297 23.060-95.842 41.075 2.882-0.721 6.486-0.721 9.368-0.721h357.427c3.603 0 6.486 0.721 9.368 0.721-28.825-18.015-61.253-31.707-95.122-41.075zM687.471 420.977v-39.634h-348.78v39.634h348.78zM338.691 488.715v39.634h348.78v-39.634h-348.78zM629.101 312.884v-39.634h-232.039v39.634h232.039zM784.754 210.556c-14.412-16.574-30.266-31.707-47.561-45.399 5.044 7.927 7.927 17.295 7.927 28.104v451.108c-33.148 0-66.297-0.721-99.445-0.721-8.647 0-15.854 7.206-15.854 15.854 0 32.428 0 64.856 0.721 97.284h-296.895c-7.206 0-13.692-1.441-19.457-3.603 28.825 18.736 59.811 33.869 92.96 43.958h210.421c19.457-5.765 38.193-13.692 56.208-22.339l110.975-110.975v-453.27z" />
<glyph unicode="&#xe91e;" glyph-name="documents" horiz-adv-x="1026" d="M21.787-64h597.939c12.104 0 21.787 9.683 21.787 21.787v106.515h365.541c12.104 0 21.787 9.683 21.787 21.787v639.092c0 2.421 0 6.052-1.21 8.473s-2.421 4.842-4.842 7.262l-215.452 213.031c-4.842 3.631-9.683 6.052-15.735 6.052h-383.697c-12.104 0-21.787-9.683-21.787-21.787v-106.515h-364.331c-12.104 0-21.787-9.683-21.787-21.787v-853.333c0-10.894 9.683-20.577 21.787-20.577zM813.39 887.376l140.407-140.407h-140.407v140.407zM429.693 831.697v85.939h341.333v-192.454c0-12.104 9.683-21.787 21.787-21.787h192.454v-597.939h-344.965v491.423c0 6.052-2.421 10.894-6.052 14.525l-214.241 214.241c-3.631 3.631-9.683 6.052-14.525 6.052h24.208zM567.678 618.667h-140.407v140.407l140.407-140.407zM42.364 789.333h341.333v-192.454c0-12.104 9.683-21.787 21.787-21.787h192.454v-597.939h-555.574v812.18z" />
<glyph unicode="&#xe91f;" glyph-name="door" horiz-adv-x="1032" d="M835.852 44.131v885.592c0 16.22-14.057 30.277-30.277 30.277h-578.501c-17.301 0-30.277-14.057-30.277-30.277v-885.592h-196.798v-107.050h1031.569v107.050h-195.717zM237.888 887.552c0 17.301 14.057 30.277 30.277 30.277h495.24c17.301 0 30.277-14.057 30.277-30.277v-844.503h-555.793v844.503zM990.479-22.91h-949.39v24.87h949.39v-24.87zM723.396 459.354c0-26.276-21.301-47.578-47.578-47.578s-47.578 21.301-47.578 47.578c0 26.276 21.301 47.578 47.578 47.578s47.578-21.301 47.578-47.578z" />
<glyph unicode="&#xe920;" glyph-name="document" horiz-adv-x="799" d="M137.45 960c-75.597 0-137.45-61.852-137.45-137.45v-748.119c0-75.597 61.852-137.45 137.45-137.45h524.272c75.597 0 137.45 61.852 137.45 137.45v689.212l-196.357 196.357h-465.365zM741.246 74.431c0-43.198-35.344-79.524-79.524-79.524h-524.272c-43.198 0-79.524 35.344-79.524 79.524v748.119c0.982 43.198 36.326 78.543 79.524 78.543h434.93c0-47.126 0-95.233-0.982-142.359 0-12.763 10.8-23.563 23.563-23.563 48.107 0 97.197 0.982 145.304 0.982v-661.722zM145.304 566.305h511.509v-58.907h-511.509v58.907zM145.304 408.238h511.509v-58.907h-511.509v58.907zM231.701 250.171h339.697v-58.907h-339.697v58.907z" />
<glyph unicode="&#xe921;" glyph-name="city" horiz-adv-x="1104" d="M1076.056 712.557l-371.521 90.563v-802.942h371.521v712.379zM840.022 62.93h-86.997v86.997h86.997v-86.997zM840.022 229.794h-86.997v86.997h86.997v-86.997zM840.022 398.084h-86.997v86.997h86.997v-86.997zM840.022 557.103h-86.997v86.997h86.997v-86.997zM1028.279 62.93h-86.997v86.997h86.997v-86.997zM1028.279 229.794h-86.997v86.997h86.997v-86.997zM1028.279 398.084h-86.997v86.997h86.997v-86.997zM1028.279 557.103h-86.997v86.997h86.997v-86.997zM275.967 409.493h-234.607v-409.315h234.607v409.315zM126.93 32.981h-54.908v49.916h54.908v-49.916zM126.93 128.535h-54.908v49.916h54.908v-49.916zM126.93 228.368h-54.908v49.916h54.908v-49.916zM126.93 319.643h-54.908v49.916h54.908v-49.916zM246.73 32.981h-54.908v49.916h54.908v-49.916zM246.73 128.535h-54.908v49.916h54.908v-49.916zM246.73 228.368h-54.908v49.916h54.908v-49.916zM246.73 319.643h-54.908v49.916h54.908v-49.916zM385.070 310.373h206.797v-310.908h94.841v960.535h-395.766v-959.822h94.128v310.195zM527.688 879.421h102.685v-102.685h-102.685v102.685zM527.688 676.189h102.685v-102.685h-102.685v102.685zM527.688 485.794h102.685v-102.685h-102.685v102.685zM347.276 879.421h102.685v-102.685h-102.685v102.685zM347.276 676.189h102.685v-102.685h-102.685v102.685zM347.276 485.794h102.685v-102.685h-102.685v102.685zM441.404 238.351h95.554v-238.886h-95.554v238.886zM0-19.788h1103.866v-44.212h-1103.866v44.212z" />
<glyph unicode="&#xe922;" glyph-name="coins" d="M564.003 704.524c-10.47-4.886-27.921-6.98-50.258-6.98-48.862 0-77.481 10.47-86.555 32.109l-93.535-9.772c18.847-34.203 67.708-53.050 147.283-56.54v-29.317h60.728v29.317c47.466 2.094 83.763 9.074 108.892 20.243 25.129 11.866 37.693 25.827 37.693 43.277 0 11.168-6.282 20.941-18.149 29.317-12.564 8.376-28.619 15.357-48.862 19.545-20.243 4.886-48.862 9.772-84.461 15.357-32.807 4.886-54.446 9.074-64.218 12.564s-14.658 8.376-14.658 14.658c0 6.282 4.886 11.168 15.357 15.357s23.733 6.282 41.183 6.282c34.203 0 59.332-9.772 75.387-28.619l83.763 13.96c-20.243 27.921-63.52 43.975-131.228 47.466v23.035h-60.728v-23.035c-44.673-2.792-77.481-9.772-98.421-20.941-20.941-11.866-31.411-24.431-31.411-39.089 0-11.168 5.584-20.941 17.451-29.317s27.223-14.658 45.372-19.545c18.847-4.886 44.673-9.074 78.179-13.96 36.995-5.584 60.728-9.772 71.896-13.262 10.47-3.49 16.055-8.376 16.055-15.357-0.698-6.282-5.584-11.866-16.753-16.753zM885.093 659.85c6.98 13.96 10.47 29.317 10.47 44.673v64.218c0 106.1-171.714 191.956-383.913 191.956-201.031-0.698-366.462-78.179-382.517-177.298-78.877-34.901-129.134-86.555-129.134-143.095v-64.218c0-59.332 53.748-112.382 138.907-147.283-6.98-13.96-10.47-29.317-10.47-44.673v-64.218c0-22.337 8.376-43.975 22.337-64.218-13.96-20.243-22.337-41.183-22.337-64.218v-64.218c0-106.1 171.714-191.956 383.913-191.956s383.913 85.857 383.913 191.956v64.916c0 23.035-8.376 44.673-23.035 64.916 0 0 0 0-0.698-0.698 10.47 15.357 18.847 31.411 21.639 48.164 79.575 34.901 129.832 86.555 129.832 143.793v64.218c0 58.634-53.748 111.684-138.907 147.283zM512.349 927.891c207.313 0 351.804-84.461 351.804-159.847s-144.491-159.847-351.804-159.847c-207.313 0-351.804 84.461-351.804 159.847-0.698 75.387 143.793 159.847 351.804 159.847zM32.109 640.305c0 37.693 35.599 76.783 96.327 106.798v-43.277c0-106.1 171.714-191.956 383.913-191.956 31.411 0 62.124 2.094 91.441 5.584-58.634-22.337-133.322-37.693-219.877-37.693-207.313 0-351.804 84.461-351.804 160.545zM640.087 255.695c32.109 0 62.822 2.094 92.139 5.584 0 0 0 0 0 0-58.634-22.337-133.322-37.693-219.877-37.693-207.313 0-351.804 84.461-351.804 159.847 0 11.168 3.49 21.639 9.772 32.807 31.411-10.47 66.312-18.847 103.307-24.431 46.768-78.179 193.352-136.115 366.462-136.115zM512.349 32.327c-207.313 0-351.804 84.461-351.804 159.847 0 12.564 5.584 25.129 13.262 37.693 0 0 0 0 0 0 64.218-60.728 191.956-101.911 339.239-101.911s274.323 41.881 338.541 102.609v0c7.678-12.564 13.262-25.827 13.262-38.391-0.698-76.085-145.189-159.847-352.502-159.847zM640.087 352.022c-82.367 0-153.565 13.262-210.803 34.203 180.788 10.47 323.185 83.065 337.843 174.506 43.277 19.545 78.179 43.277 100.515 70.5 77.481-31.411 124.946-76.783 124.946-119.362-0.698-75.387-145.189-159.847-352.502-159.847z" />
<glyph unicode="&#xe923;" glyph-name="check" horiz-adv-x="1435" d="M580.847-60.835l1.583-3.165 853.070 853.070-169.348 170.93-685.304-685.304-409.917 409.917-170.93-170.93 577.682-577.682z" />
<glyph unicode="&#xe924;" glyph-name="checklist" horiz-adv-x="651" d="M108.535 449.573h99.097v99.097h-99.097v-99.097zM134.488 522.716h47.975v-47.975h-47.975v47.975zM285.493 511.705h262.685v-25.954h-262.685v25.954zM108.535 277.333h99.097v99.097h-99.097v-99.097zM134.488 350.476h47.975v-47.975h-47.975v47.975zM285.493 339.465h262.685v-25.954h-262.685v25.954zM108.535 105.094h99.097v99.097h-99.097v-99.097zM134.488 178.237h47.975v-47.975h-47.975v47.975zM285.493 167.226h262.685v-25.954h-262.685v25.954zM591.435 797.198h-52.694v26.74c0 20.449-16.516 36.965-36.965 36.965h-54.267c-11.797 57.413-62.919 99.097-121.905 99.097s-109.321-41.684-121.905-99.097h-54.267c-20.449 0-36.965-16.516-36.965-36.965v-26.74h-51.908c-33.032 0-60.559-26.74-60.559-60.559v-740.866c0-33.032 26.74-60.559 60.559-60.559h530.876c33.032 0 60.559 26.74 60.559 60.559v740.866c-0.786 33.032-27.527 60.559-60.559 60.559zM138.421 771.244v0 52.694c0 6.292 5.505 11.011 11.011 11.011h76.289l1.573 11.011c6.292 51.121 48.762 88.086 98.31 88.086 50.335 0 92.805-36.965 99.097-87.3l1.573-11.011h76.289c6.292 0 11.011-5.505 11.011-11.011v-100.67c0-6.292-4.719-11.011-11.011-11.011h-353.131c-6.292 0-11.011 4.719-11.011 11.011v47.189zM626.040-4.227c0-18.876-15.73-34.605-34.605-34.605h-530.876c-18.876 0-34.605 15.73-34.605 34.605v740.866c0 18.876 15.73 34.605 34.605 34.605h52.694v-47.189c0-20.449 16.516-36.965 36.965-36.965h352.344c20.449 0 36.965 16.516 36.965 36.965v47.189h52.694c18.876 0 34.605-15.73 34.605-34.605v-740.866zM325.604 831.017c11.011 0 19.662 8.651 19.662 19.662s-8.651 19.662-19.662 19.662-18.876-9.438-18.876-20.449c0-10.224 8.651-18.876 18.876-18.876z" />
<glyph unicode="&#xe925;" glyph-name="bank" horiz-adv-x="1017" d="M964.638 182.041h-71.079v51.551h-38.273v228.076h19.527v51.551h142.938l-509.266 446.78-508.485-446.78h142.938v-51.551h19.527v-228.076h-38.273v-51.551h-71.86v-75.765h-47.646v-171.057h1006.816v171.057h-47.646v75.765zM868.564 209.379v-26.557h-184.336v26.557h184.336zM587.375 233.593v228.076h19.527v51.551h71.079v-51.551h19.527v-228.076h-38.273v-51.551h-33.587v51.551h-38.273zM319.463 233.593v228.076h19.527v51.551h71.079v-51.551h19.527v-228.076h-38.273v-51.551h-33.587v51.551h-38.273zM416.317 209.379h183.555v-26.557h-183.555v26.557zM435.063 486.664v26.557h146.844v-26.557h-146.844zM562.38 461.669v-228.076h-107.789v228.076h107.789zM702.975 486.664v26.557h146.844v-26.557h-146.844zM830.291 461.669v-228.076h-107.789v228.076h107.789zM142.938 538.215h-77.327l442.874 388.979 442.874-388.979h-808.421zM167.152 486.664v26.557h146.844v-26.557h-146.844zM294.468 461.669v-228.076h-107.008v228.076h107.008zM149.187 209.379h183.555v-26.557h-183.555v26.557zM77.327 157.047h861.535v-50.77h-861.535v50.77zM987.289 82.063v-121.068h-957.608v121.068h957.608zM508.485 572.583c73.422 0 133.565 60.143 133.565 133.565s-60.143 133.565-133.565 133.565c-73.422 0-133.565-59.362-133.565-133.565 0-73.422 60.143-133.565 133.565-133.565zM508.485 815.5c60.143 0 108.571-48.427 108.571-108.571s-48.427-108.571-108.571-108.571c-60.143 0-108.571 48.427-108.571 108.571 0 59.362 48.427 108.571 108.571 108.571zM509.266 657.721c-17.184 0-27.338 7.811-29.681 23.432l-32.805-7.030c6.249-24.995 23.432-39.054 51.551-41.397v-21.089h21.089v21.87c16.403 1.562 28.9 6.249 38.273 14.841s13.278 18.746 13.278 31.243c0 7.811-2.343 15.622-6.249 21.089-3.905 6.249-10.154 10.935-17.184 14.059s-17.184 7.030-29.681 10.935c-11.716 3.905-18.746 6.249-22.651 9.373-3.124 2.343-5.468 6.249-5.468 10.154 0 4.686 1.562 8.592 5.468 11.716s8.592 4.686 14.059 4.686c11.716 0 20.308-7.030 26.557-21.089l28.9 10.154c-7.030 20.308-21.87 32.024-46.084 34.368v16.403h-21.089v-16.403c-15.622-1.562-27.338-7.030-34.368-15.622s-10.154-17.965-10.154-28.119c0-7.811 2.343-14.841 6.249-21.089s9.373-10.935 15.622-14.059c6.249-3.124 15.622-7.030 27.338-10.154 13.278-3.905 21.089-7.030 24.995-9.373s5.468-6.249 5.468-10.935c0-4.686-1.562-8.592-5.468-12.497s-10.154-5.468-17.965-5.468z" />
<glyph unicode="&#xe926;" glyph-name="brain" horiz-adv-x="1149" d="M551.841 581.934c27.126-16.954 55.099-20.344 74.596-20.344 8.477 0 16.106 0.848 21.192 1.695 11.020 1.695 17.801 11.868 16.106 22.887s-11.868 17.801-22.887 16.106c-11.020-1.695-39.841-4.238-68.662 13.563-30.517 18.649-41.536 47.47-44.927 58.49-3.391 10.172-13.563 16.106-24.583 13.563-10.172-3.391-16.106-14.411-13.563-24.583 5.086-16.106 20.344-55.099 62.728-81.377zM753.589 685.351c-6.781 18.649-21.192 44.079-49.166 66.119-38.993 29.669-80.53 33.060-102.57 32.212-11.020-0.848-19.497-9.325-18.649-20.344s10.172-19.497 20.344-18.649c16.106 0.848 47.47-1.695 76.291-23.735 20.344-16.106 31.364-35.603 36.45-49.166 3.391-7.629 10.172-12.715 18.649-12.715 2.543 0 5.086 0 6.781 1.695 11.020 2.543 16.106 14.411 11.868 24.583zM1024.848 644.662c-0.848 11.020-10.172 20.344-21.192 18.649-11.020-0.848-19.497-10.172-18.649-21.192 0-5.934 0-11.020 0-16.954-19.497 1.695-40.689 31.364-40.689 73.748 0 11.020-8.477 19.497-19.497 19.497s-19.497-8.477-19.497-19.497c0-61.033 33.907-109.351 77.987-112.742-4.238-27.126-11.020-53.404-22.887-77.139-51.709-105.96-159.364-139.020-190.728-147.497-10.172-2.543-16.954-13.563-14.411-23.735 2.543-9.325 10.172-15.258 19.497-15.258 1.695 0 3.391 0 5.086 0.848 35.603 8.477 157.669 47.47 217.007 167.841 21.192 46.623 31.364 100.026 27.974 153.43zM511.152 523.444c-43.232 0-78.834 36.45-78.834 82.225 0 11.020-8.477 19.497-19.497 19.497s-19.497-8.477-19.497-19.497c0-66.967 53.404-121.219 118.675-121.219 106.808 0 194.119-63.576 194.119-141.563 0-11.020 8.477-19.497 19.497-19.497s19.497 8.477 19.497 19.497c-0.848 99.179-105.113 180.556-233.96 180.556zM574.728 387.815c-16.106-5.086-32.212 0-42.384 11.868-11.868 15.258-5.934 34.755-5.934 35.603 3.391 10.172-2.543 21.192-12.715 24.583s-21.192-1.695-24.583-11.868c-1.695-4.238-12.715-41.536 11.868-72.901 14.411-18.649 37.298-28.821 61.033-28.821 7.629 0 15.258 0.848 22.887 3.391 10.172 3.391 16.106 14.411 13.563 24.583-2.543 11.020-13.563 16.954-23.735 13.563zM784.106 537.854c18.649 14.411 45.775 15.258 64.424 1.695 17.801-12.715 26.278-35.603 21.192-56.795-2.543-10.172 4.238-21.192 14.411-23.735 1.695 0 3.391-0.848 4.238-0.848 9.325 0 16.954 5.934 19.497 15.258 8.477 37.298-5.934 76.291-36.45 98.331-33.060 23.735-78.834 22.040-111.046-2.543-8.477-6.781-10.172-18.649-3.391-27.974 5.934-7.629 18.649-9.325 27.126-3.391zM1136.742 524.291c47.47 91.55-52.556 240.742-119.523 302.623-19.497 17.801-39.841 31.364-72.053 54.252-55.099 38.146-83.073 50.013-101.722 42.384-16.954 20.344-51.709 26.278-106.808 16.954-25.43 7.629-51.709 13.563-77.987 16.954-41.536 5.086-79.682 2.543-148.344-1.695l-15.258-0.848c-8.477-0.848-16.106-0.848-24.583-1.695-1.695 0-2.543 0-4.238 0 0 0-0.848 0-0.848 0-11.868-0.848-22.887-1.695-34.755-3.391-51.709-5.086-102.57-13.563-146.649-52.556-12.715-11.020-22.887-23.735-32.212-37.298-6.781 0-13.563-0.848-20.344-3.391-34.755-9.325-52.556-38.993-64.424-59.338-16.954-27.126-26.278-36.45-36.45-45.775-11.868-11.020-24.583-22.887-45.775-56.795-26.278-42.384-61.033-100.026-44.079-139.868-15.258-10.172-27.126-28.821-33.907-51.709-8.477-29.669-10.172-75.444 13.563-105.96 10.172-13.563 22.040-18.649 39.841-22.040-0.848-59.338 12.715-185.642 111.046-267.020 20.344-16.954 60.185-49.166 113.589-53.404-31.364-39.841-40.689-74.596-26.278-97.483 11.020-16.106 31.364-21.192 52.556-21.192 24.583 0 50.013 6.781 61.033 10.172 69.51 21.192 111.046 71.205 130.543 94.94 55.099 65.272 136.477 118.675 244.132 157.669 17.801 1.695 33.907 7.629 47.47 19.497 9.325 8.477 16.106 18.649 19.497 27.974 35.603-5.934 70.358-5.086 105.113 1.695 64.424 13.563 120.371 50.013 165.298 106.808 10.172 12.715 18.649 26.278 26.278 39.841 0 0.848 0.848 0.848 0.848 1.695 25.43 46.623 36.45 93.245 33.060 113.589-1.695 6.781-4.238 11.020-7.629 14.411zM195.815 138.596c-83.073 68.662-96.636 177.166-97.483 232.265 23.735-2.543 56.795-5.934 104.265-14.411 50.861-9.325 98.331-17.801 150.040-45.775 25.43-13.563 36.45-24.583 47.47-35.603 9.325-9.325 18.649-18.649 34.755-28.821-0.848-19.497-5.086-38.993-12.715-56.795-18.649-44.079-61.881-90.702-115.285-95.788-50.013-5.086-89.854 27.974-111.046 44.927zM470.464 64c-15.258-18.649-51.709-61.881-110.199-79.682-35.603-11.020-65.272-10.172-69.51-5.086-3.391 5.934 7.629 38.993 54.252 83.921 55.099 19.497 94.94 68.662 112.742 111.046 7.629 16.954 11.868 33.907 14.411 52.556 43.232-19.497 133.086-50.013 186.49-1.695 3.391 3.391 6.781 5.934 9.325 9.325 3.391-4.238 6.781-9.325 11.020-12.715 1.695-1.695 4.238-3.391 6.781-5.086-90.702-39.841-162.755-90.702-215.311-152.583zM1014.675 476.821c1.695-10.172 10.172-16.954 21.192-16.954 20.344 1.695 38.993 6.781 56.795 14.411 3.391 1.695 6.781 3.391 9.325 4.238-4.238-16.106-12.715-39.841-25.43-63.576-14.411-11.868-37.298-25.43-66.119-27.126-7.629-0.848-15.258 0-23.735 0.848-11.020 1.695-21.192-5.934-22.887-16.106-1.695-11.020 5.934-21.192 16.106-22.887 7.629-0.848 15.258-1.695 22.040-1.695 3.391 0 6.781 0 9.325 0 5.086 0 9.325 0.848 14.411 1.695-33.907-33.060-72.901-55.099-116.98-64.424-34.755-7.629-70.358-6.781-105.96 1.695-5.086 0.848-11.020 0-15.258-2.543-4.238-3.391-7.629-7.629-8.477-13.563-0.848-7.629-4.238-16.954-12.715-24.583-16.106-14.411-45.775-12.715-62.728 2.543-15.258 13.563-15.258 34.755-14.411 40.689 0.848 10.172-6.781 19.497-17.801 20.344-0.848 0-1.695 0-2.543 0-9.325 0-17.801-6.781-19.497-16.106-3.391-18.649-10.172-32.212-20.344-41.536-37.298-33.907-122.914-3.391-162.755 17.801-22.040 11.020-31.364 20.344-41.536 31.364-11.868 11.868-25.43 25.43-56.795 42.384-9.325 5.086-18.649 9.325-27.974 13.563 2.543 23.735 1.695 65.272-26.278 104.265-43.232 59.338-112.742 61.881-121.219 61.033-11.020 0-19.497-9.325-19.497-19.497 0-11.020 8.477-19.497 19.497-19.497 0 0 0 0 0 0 5.934-1.695 57.642-0.848 89.007-44.079 16.954-23.735 20.344-48.318 20.344-66.119-33.060 10.172-64.424 16.106-95.788 22.040 0 0 0 0 0 0-57.642 10.172-94.093 13.563-118.675 16.106-32.212 2.543-35.603 3.391-39.841 9.325-11.868 15.258-14.411 44.927-6.781 71.205 5.086 18.649 14.411 29.669 21.192 32.212 2.543 0.848 5.934 0.848 10.172 0 1.695-0.848 3.391-0.848 5.086-1.695 10.172-2.543 21.192 3.391 23.735 13.563 3.391 10.172-2.543 21.192-12.715 24.583-1.695 0.848-3.391 0.848-5.086 1.695-4.238 1.695-7.629 3.391-9.325 5.934-13.563 18.649 22.887 77.987 39.841 105.96 17.801 28.821 27.974 38.993 38.993 48.318 0 0 0 0 0.848 0.848 3.391-31.364 15.258-61.033 36.45-84.768 40.689-47.47 97.483-52.556 114.437-52.556 0 0 0 0 0.848 0 11.020 0 19.497 8.477 19.497 19.497s-8.477 20.344-19.497 20.344c-12.715 0-55.099 4.238-85.616 38.993-27.126 30.517-34.755 74.596-21.192 116.132 9.325 14.411 20.344 33.060 38.993 38.146 5.934-27.974 22.040-69.51 61.881-100.874 15.258-11.868 33.060-21.192 51.709-27.974-2.543-8.477-4.238-17.801-4.238-27.126 0-11.020 8.477-19.497 19.497-19.497s19.497 8.477 19.497 19.497c0 38.146 46.623 69.51 102.57 69.51 11.020 0 19.497 8.477 19.497 19.497s-8.477 19.497-19.497 19.497c-48.318 0-90.702-18.649-116.98-46.623-17.801 4.238-34.755 12.715-48.318 23.735-32.212 25.43-44.079 59.338-48.318 81.377 0 0 0 0 0 0 8.477 14.411 18.649 27.126 31.364 38.146 35.603 31.364 77.139 38.146 124.609 42.384 14.411 1.695 27.974 2.543 41.536 3.391 33.060 1.695 62.728-15.258 72.053-40.689 7.629-20.344 0-40.689-4.238-48.318-5.086-10.172-0.848-21.192 9.325-26.278 2.543-1.695 5.934-1.695 8.477-1.695 7.629 0 14.411 4.238 17.801 11.020 5.934 12.715 18.649 44.927 5.934 79.682-4.238 12.715-11.868 22.887-21.192 32.212 39.841 0.848 66.119 0.848 92.397-2.543 18.649-2.543 38.146-6.781 56.795-11.868-0.848-28.821 2.543-87.311 49.166-132.238 24.583-23.735 52.556-35.603 75.444-40.689-4.238-12.715-7.629-26.278-7.629-40.689 0-11.020 8.477-19.497 19.497-19.497s19.497 8.477 19.497 19.497c0 44.079 35.603 80.53 78.834 80.53 11.020 0 19.497 8.477 19.497 19.497s-8.477 19.497-19.497 19.497c-36.45 0-68.662-16.954-89.854-43.232-18.649 2.543-45.775 10.172-68.662 33.060-33.907 33.060-38.146 77.139-37.298 100.026 53.404 7.629 63.576-3.391 64.424-5.086 3.391-5.086 4.238-16.954-6.781-48.318-2.543-7.629-5.086-14.411-0.848-22.887 2.543-5.086 7.629-8.477 12.715-10.172 18.649-5.086 24.583 11.868 33.060 35.603 5.086 16.106 7.629 26.278 9.325 33.060 8.477-2.543 26.278-11.020 61.881-35.603 32.212-22.040 50.013-33.907 67.815-50.013 61.881-57.642 151.735-194.119 108.503-260.238-11.868-18.649-35.603-31.364-68.662-38.146-10.172-2.543-16.954-11.868-15.258-22.887z" />
<glyph unicode="&#xe927;" glyph-name="align-left" horiz-adv-x="987" d="M0 960h986.693v-120.925h-986.693v120.925zM0 426.131h986.693v-120.925h-986.693v120.925zM0 692.422h670.231v-120.925h-670.231v120.925zM99.162 33.851c22.607-22.607 22.607-59.26 0-81.867s-59.26-22.607-81.867 0c-22.607 22.607-22.607 59.26 0 81.867s59.26 22.607 81.867 0zM664.952 6.127c7.347-31.115-11.92-62.294-43.035-69.641s-62.294 11.92-69.641 43.035c-7.347 31.115 11.92 62.294 43.035 69.641s62.294-11.92 69.641-43.035zM333.186 50.492c-32.161 0-57.889-25.729-57.889-57.889s25.729-57.889 57.889-57.889c32.161 0 57.889 25.729 57.889 57.889s-27.015 57.889-57.889 57.889z" />
<glyph unicode="&#xe928;" glyph-name="align-right" horiz-adv-x="987" d="M0 960h986.693v-120.925h-986.693v120.925zM0 426.131h986.693v-120.925h-986.693v120.925zM316.462 692.422h670.231v-120.925h-670.231v120.925zM970.278 33.345c22.607-22.607 22.607-59.26 0-81.867s-59.26-22.607-81.867 0c-22.607 22.607-22.607 59.26 0 81.867s59.26 22.607 81.867 0zM393.013 49.717c31.115-7.347 50.382-38.526 43.035-69.641s-38.526-50.382-69.641-43.035c-31.115 7.347-50.382 38.526-43.035 69.641s38.526 50.382 69.641 43.035zM654.794 50.492c32.161 0 57.889-25.729 57.889-57.889s-25.729-57.889-57.889-57.889c-32.161 0-57.889 25.729-57.889 57.889s25.729 57.889 57.889 57.889z" />
<glyph unicode="&#xe929;" glyph-name="word" horiz-adv-x="1048" d="M1046.909 818.545c2.505 27.148-18.813 48.228-45.951 45.485-127.29 2.029-254.59 0-381.995 0.714 0 31.787 0 63.469 0 95.256h-71.204c-182.529-32.511-365.182-63.583-547.702-95.494 0-277.671-0.124-555.465 0-833.25 181.567-31.796 363.287-62.154 544.501-95.256h74.404c0 31.796 0 63.459 0 95.256 119.194 0 238.263 0.238 357.457-0.343 20.232 0.943 42.741-0.6 60.116 11.783 13.936 21.299 10.364 47.98 11.555 72.042-1.667 234.567 0.848 469.24-1.181 703.807zM397.255 286.198c-19.899-10.373-49.666 0.467-73.242-1.191-15.841 78.805-34.302 157.172-48.466 236.349-13.926-76.919-32.025-153.124-47.98-229.576-22.861 1.191-45.828 2.61-68.832 4.172-19.756 104.781-42.989 208.848-61.43 313.868 20.356 0.953 40.836 1.791 61.202 2.505 12.259-75.843 26.195-151.342 36.912-227.29 16.813 77.853 33.949 155.724 50.619 233.605 22.623 1.305 45.247 2.258 67.87 3.448 15.832-80.377 32.015-160.62 49.171-240.626 13.45 82.625 28.348 165.021 42.732 247.532 23.814 0.829 47.628 2.143 71.328 3.572-26.9-115.383-50.476-231.719-79.882-346.369zM1011.893 66.977c-130.977 0-261.953 0-392.93 0 0 31.796 0 63.459 0 95.256 103.238 0 206.353 0 309.581 0 0 15.832 0 31.796 0 47.628-103.229 0-206.343 0-309.581 0 0 19.889 0 39.645 0 59.535 103.238 0 206.353 0 309.581 0 0 15.832 0 31.796 0 47.628-103.229 0-206.343 0-309.581 0 0 19.889 0 39.645 0 59.535 103.238 0 206.353 0 309.581 0 0 15.832 0 31.796 0 47.628-103.229 0-206.343 0-309.581 0 0 19.88 0 39.655 0 59.535 103.238 0 206.353 0 309.581 0 0 15.841 0 31.787 0 47.628-103.229 0-206.343 0-309.581 0 0 19.88 0 39.655 0 59.535 103.238 0 206.353 0 309.581 0 0 15.841 0 31.787 0 47.628-103.229 0-206.343 0-309.581 0 0 19.88 0 39.655 0 59.535 103.238 0 206.353 0 309.581 0 0 15.841 0 31.787 0 47.628-103.229 0-206.343 0-309.581 0 0 27.748 0 55.601 0 83.349 130.977 0 261.953 0 392.93 0 0-253.981 0-508.075 0-762.047z" />
<glyph unicode="&#xe92a;" glyph-name="powerpoint" horiz-adv-x="1077" d="M260.6 555.239c0-34.518 0-67.286 0-100.997 24.57-1.886 48.569-6.477 63.491 18.995 11.274 19.225 10.331 54.344-2.758 69.113-16.92 19.095-38.779 16.366-60.733 12.889zM1041.686 848.766h-425.807v111.234l-615.879-106.856v-810.289l615.879-106.856v134.82h425.807c19.502 0 35.361 15.859 35.361 35.361v707.223c0 19.502-15.865 35.361-35.361 35.361zM399.811 471.421c-9.329-40.023-35.149-68.182-75.844-78.083-20.274-4.933-41.968-4.025-65.1-5.929 0-38.856 0-76.816 0-113.975-21.712 0-41.154 0-61.688 0 0 114.659 0 227.048 0 344.312 47.59 0 94.933 1.338 142.105-0.902 12.406-0.589 26.804-9.807 35.956-19.26 35.031-36.174 35.037-81.225 24.57-126.163zM1041.628 106.181h-425.748v88.892h332v41.255h-332v69.738h332v41.255h-332v114.647c26.751-31.365 66.532-51.285 110.993-51.285 80.559 0 145.859 65.306 145.859 145.859h-145.859v145.859c-44.461 0-84.242-19.92-110.993-51.285v162.29h425.807l-0.059-707.223zM749.462 723.033v-145.859h145.859c0 80.553-65.3 145.859-145.859 145.859z" />
<glyph unicode="&#xe92b;" glyph-name="excel" horiz-adv-x="1025" d="M980.644 872.565h-370.91v87.435l-609.734-94.123v-824.873l609.734-105.004v129.527h370.91c24.659 0 44.644 17.968 44.644 40.129v726.781c0.003 22.161-19.984 40.129-44.644 40.129zM424.101 271.522l-83.067 5.615-56.124 147.354-56.127-141.743-76.329 6.735 88.675 170.756-81.94 182.838 78.576 4.488 49.389-135.823 58.371 141.438 78.576 4.491-95.414-192.834 95.414-193.315zM986.506 98.967h-378.026l-0.619 69.186h91.053v80.556h-91.765l-0.425 47.633h92.19v80.556h-92.909l-0.421 47.633h93.33v80.556h-93.634v47.633h93.634v80.556h-93.634v47.633h93.634v80.556h-93.634v73.192h381.226v-735.689zM750.189 761.465h158.286v-80.556h-158.286v80.556zM750.189 633.276h158.286v-80.556h-158.286v80.556zM750.189 505.087h158.286v-80.556h-158.286v80.556zM750.189 376.898h158.286v-80.556h-158.286v80.556zM750.189 248.709h158.286v-80.556h-158.286v80.556z" />
<glyph unicode="&#xe92c;" glyph-name="chevron-right" horiz-adv-x="591" d="M24.976 935.024c33.301 33.301 83.252 33.301 116.553 0l424.585-424.585c16.65-16.65 33.301-41.626 24.976-58.276 0-24.976-8.325-49.951-24.976-66.602l-424.585-424.585c-16.65-16.65-41.626-24.976-58.276-24.976s-41.626 8.325-58.276 24.976c-33.301 33.301-33.301 83.252 0 116.553l374.634 374.634-374.634 366.309c-33.301 33.301-33.301 83.252 0 116.553z" />
<glyph unicode="&#xe92d;" glyph-name="chevron-up" horiz-adv-x="1774" d="M43.268-20.732c-57.69 57.69-57.69 144.225 0 201.915l735.549 735.549c28.845 28.845 72.113 43.268 100.958 43.268 43.268 0 86.535-14.423 115.38-43.268l735.549-735.549c28.845-28.845 43.268-72.113 43.268-100.958s-14.423-72.113-43.268-100.958c-57.69-57.69-144.225-57.69-201.915 0l-634.592 634.592-649.014-634.592c-57.69-57.69-144.225-57.69-201.915 0z" />
<glyph unicode="&#xe92e;" glyph-name="chevron-down" horiz-adv-x="1774" d="M43.268 916.732c-57.69-57.69-57.69-144.225 0-201.915l735.549-735.549c28.845-28.845 72.113-57.69 100.958-43.268 43.268 0 86.535 14.423 115.38 43.268l735.549 735.549c28.845 28.845 43.268 72.113 43.268 100.958s-14.423 72.113-43.268 100.958c-57.69 57.69-144.225 57.69-201.915 0l-634.592-649.014-649.014 649.014c-57.69 57.69-144.225 57.69-201.915 0z" />
<glyph unicode="&#xe92f;" glyph-name="trash" horiz-adv-x="831" d="M415.536 74.512c9.894 0 19.787 9.894 19.787 19.787v568.889c0 9.894-9.894 19.787-19.787 19.787s-14.841-9.894-14.841-19.787v-573.836c0-4.947 4.947-14.841 14.841-14.841zM242.396 74.512c9.894 0 19.787 9.894 19.787 19.787v568.889c0 9.894-9.894 19.787-19.787 19.787s-14.841-9.894-14.841-19.787v-573.836c0-4.947 4.947-14.841 14.841-14.841zM588.676 74.512c9.894 0 19.787 9.894 19.787 19.787v568.889c0 9.894-9.894 19.787-19.787 19.787s-19.787-9.894-19.787-19.787v-573.836c4.947-4.947 9.894-14.841 19.787-14.841zM816.232 856.116h-222.609c0 19.787-9.894 59.362-29.681 84.097-14.841 9.894-34.628 19.787-54.415 19.787h-178.087c-19.787 0-39.575-9.894-54.415-24.734-19.787-19.787-24.734-59.362-29.681-79.15h-227.556c-9.894 0-19.787-9.894-19.787-19.787s9.894-14.841 19.787-14.841h34.628l34.628-796.444c0-29.681 19.787-84.097 84.097-84.097h489.739c64.309 0 84.097 54.415 84.097 84.097l34.628 796.444h34.628c9.894 0 14.841 9.894 14.841 14.841 0 9.894-4.947 19.787-14.841 19.787zM306.705 915.478c9.894 9.894 19.787 9.894 29.681 9.894h173.14c9.894 0 19.787-4.947 29.681-9.894 14.841-14.841 19.787-39.575 19.787-59.362h-277.024c4.947 19.787 9.894 44.522 24.734 59.362zM712.348 25.043c0-4.947-4.947-54.415-49.469-54.415h-489.739c-49.469 0-49.469 49.469-49.469 54.415l-34.628 796.444h657.932l-34.628-796.444z" />
<glyph unicode="&#xe930;" glyph-name="calendar" horiz-adv-x="1104" d="M913.569 899.765h-55.216v-100.392c0-25.098-20.078-40.157-40.157-40.157s-40.157 20.078-40.157 40.157v100.392h-451.765v-100.392c0-25.098-15.059-40.157-40.157-40.157s-40.157 15.059-40.157 40.157v100.392h-55.216c-105.412 0-190.745-85.333-190.745-190.745v-582.275c0-105.412 85.333-190.745 190.745-190.745h642.51l271.059 271.059v501.961c0 105.412-85.333 190.745-190.745 190.745zM1024 247.216c-65.255 0-135.529 0-200.784 0-20.078 0-35.137-15.059-35.137-30.118 0-65.255 0-130.51 0-195.765h-602.353c-60.235 0-110.431 50.196-110.431 110.431v486.902h943.686v-371.451zM286.118 769.255c15.059 0 30.118 15.059 30.118 30.118v130.51c0 15.059-15.059 30.118-30.118 30.118s-30.118-15.059-30.118-30.118v-130.51c0-15.059 15.059-30.118 30.118-30.118zM818.196 769.255c15.059 0 30.118 15.059 30.118 30.118v130.51c0 15.059-15.059 30.118-30.118 30.118s-30.118-15.059-30.118-30.118v-130.51c0-15.059 15.059-30.118 30.118-30.118zM411.608 407.843c5.020 10.039 15.059 15.059 25.098 15.059s20.078-5.020 25.098-10.039 10.039-15.059 10.039-25.098c0-15.059-10.039-35.137-35.137-60.235l-90.353-95.373v-40.157h195.765v50.196h-115.451l35.137 40.157c20.078 20.078 35.137 35.137 40.157 45.176 10.039 10.039 15.059 20.078 20.078 35.137s5.020 20.078 5.020 30.118c0 25.098-10.039 45.176-25.098 60.235-10.039 10.039-35.137 15.059-65.255 15.059-20.078 0-35.137-5.020-50.196-10.039-15.059-10.039-25.098-20.078-35.137-35.137s-15.059-30.118-15.059-45.176h65.255c0 10.039 5.020 20.078 10.039 30.118zM667.608 232.157c-10.039 0-15.059 5.020-25.098 10.039-5.020 5.020-10.039 15.059-10.039 25.098h-65.255c0-15.059 5.020-30.118 15.059-45.176s20.078-25.098 35.137-30.118c15.059-5.020 30.118-10.039 50.196-10.039s35.137 5.020 50.196 10.039c15.059 10.039 25.098 20.078 35.137 35.137s10.039 30.118 10.039 50.196c0 30.118-5.020 55.216-20.078 70.275s-35.137 25.098-65.255 25.098c-5.020 0-15.059 0-20.078-5.020-5.020 0-15.059-5.020-20.078-5.020l5.020 55.216h110.431v50.196h-165.647l-15.059-145.569 50.196-10.039c5.020 10.039 20.078 15.059 35.137 15.059 25.098 0 40.157-15.059 40.157-45.176 0-35.137-10.039-50.196-30.118-50.196z" />
<glyph unicode="&#xe931;" glyph-name="paperclip" horiz-adv-x="1090" d="M671.706 819.083l-436.844-436.844c-70.459-70.459-79.853-164.404-14.092-225.468 61.064-61.064 155.009-56.367 225.468 14.092l389.872 389.872c14.092 14.092 14.092 32.881 0 46.972s-32.881 14.092-46.972 0l-389.872-389.872c-32.881-32.881-89.248-56.367-131.523-14.092s-18.789 93.945 14.092 131.523l441.541 436.844c126.826 126.826 183.193 155.009 258.349 79.853s56.367-155.009-65.761-277.138l-483.817-483.817c-79.853-79.853-206.679-131.523-310.018-28.183-122.128 122.128 0 263.046 37.578 300.624l446.239 446.239c14.092 14.092 14.092 32.881 0 46.972s-32.881 14.092-46.972 0l-446.239-446.239c-136.22-136.22-150.312-286.532-37.578-399.266s277.138-98.642 403.963 28.183l483.817 488.514c42.275 42.275 126.826 131.523 126.826 230.165 0 46.972-18.789 93.945-65.761 140.917-131.523 136.22-258.349 9.394-352.294-79.853z" />
<glyph unicode="&#xe932;" glyph-name="caret-down" horiz-adv-x="2244" d="M1132.936-64l1111.149 1024h-2244.085z" />
<glyph unicode="&#xe933;" glyph-name="caret-left" horiz-adv-x="467" d="M0 443.029l467.262 516.971v-1024z" />
<glyph unicode="&#xe934;" glyph-name="chevron-left" horiz-adv-x="591" d="M566.114 935.024c-33.301 33.301-83.252 33.301-116.553 0l-424.585-424.585c-16.65-16.65-24.976-41.626-24.976-58.276 0-24.976 8.325-49.951 24.976-66.602l424.585-424.585c16.65-16.65 41.626-24.976 58.276-24.976s41.626 8.325 58.276 24.976c33.301 33.301 33.301 83.252 0 116.553l-366.309 366.309 374.634 374.634c24.976 33.301 24.976 83.252-8.325 116.553z" />
<glyph unicode="&#xe935;" glyph-name="caret-right" horiz-adv-x="467" d="M467.262 443.029l-467.262 516.971v-1024z" />
<glyph unicode="&#xe936;" glyph-name="caret-up" horiz-adv-x="2244" d="M1132.936 960l1111.149-1024h-2244.085z" />
<glyph unicode="&#xe937;" glyph-name="grid" d="M410.904 138.191h202.191v-202.191h-202.191v202.191zM0 960h202.191v-202.191h-202.191v202.191zM0 138.191h202.191v-202.191h-202.191v202.191zM0 549.096h202.191v-202.191h-202.191v202.191zM410.904 549.096h202.191v-202.191h-202.191v202.191zM821.809 549.096h202.191v-202.191h-202.191v202.191zM821.809 960h202.191v-202.191h-202.191v202.191zM410.904 960h202.191v-202.191h-202.191v202.191zM821.809 138.191h202.191v-202.191h-202.191v202.191z" />
<glyph unicode="&#xe938;" glyph-name="list" horiz-adv-x="1233" d="M0 960h202.191v-202.191h-202.191v202.191zM0 549.096h202.191v-202.191h-202.191v202.191zM0 138.191h202.191v-202.191h-202.191v202.191zM410.904 960h821.809v-202.191h-821.809v202.191zM410.904 549.096h821.809v-202.191h-821.809v202.191zM410.904 138.191h821.809v-202.191h-821.809v202.191z" />
<glyph unicode="&#xe939;" glyph-name="user3" horiz-adv-x="1140" d="M570.15 350.139c167.357 0 303.512 136.155 303.512 303.512 2.837 170.194-136.155 306.349-303.512 306.349s-303.512-136.155-303.512-303.512c0-170.194 136.155-306.349 303.512-306.349zM570.15 920.288c144.665 0 263.801-119.136 263.801-263.801s-119.136-263.801-263.801-263.801c-144.665 0-263.801 119.136-263.801 263.801s119.136 263.801 263.801 263.801zM570.15 849.374c11.346 0 19.856 8.51 19.856 19.856s-8.51 19.856-19.856 19.856c-127.645 0-232.598-104.953-232.598-232.598 0-11.346 8.51-19.856 19.856-19.856s19.856 8.51 19.856 19.856c0 104.953 87.934 192.886 192.886 192.886zM714.814 333.119h-289.33c-212.742 0-397.119-158.848-425.485-371.59 0-11.346 5.673-22.693 17.019-22.693s19.856 5.673 22.693 17.019c25.529 190.050 192.886 337.551 385.773 337.551h289.33c192.886 0 360.244-144.665 385.773-337.551 0-11.346 11.346-17.019 19.856-17.019 0 0 2.837 0 2.837 0 11.346 2.837 19.856 11.346 17.019 22.693-28.366 209.906-212.742 371.59-425.485 371.59z" />
<glyph unicode="&#xe93a;" glyph-name="star" horiz-adv-x="1074" d="M1047.473 590.304h-369.696l-114.43 352.092c-2.934 8.802-8.802 14.67-17.605 17.605-14.67 2.934-29.341-2.934-35.209-17.605l-114.43-352.092h-366.762c-8.802 0-17.605-2.934-23.473-11.736-8.802-11.736-5.868-29.341 5.868-38.143l299.278-217.123-114.43-352.092c-2.934-8.802-2.934-17.605 2.934-23.473 8.802-11.736 26.407-14.67 38.143-5.868l299.278 217.123 296.344-217.123c5.868-5.868 17.605-8.802 26.407-5.868 14.67 5.868 23.473 20.539 17.605 35.209l-114.43 352.092 299.278 217.123c5.868 5.868 11.736 14.67 11.736 23.473 0 14.67-11.736 26.407-26.407 26.407zM715.92 355.576c-8.802-8.802-14.67-20.539-8.802-32.275l93.891-287.542-246.464 178.98c-8.802 5.868-23.473 5.868-32.275 0l-246.464-178.98 93.891 287.542c2.934 11.736 0 23.473-8.802 32.275l-246.464 178.98h305.146c11.736 0 23.473 8.802 26.407 20.539l90.957 287.542 93.891-290.476c2.934-11.736 14.67-20.539 26.407-20.539h302.212l-243.53-176.046z" />
<glyph unicode="&#xe93b;" glyph-name="time" d="M513.528 960c-284.275 0-513.528-229.254-513.528-513.528s229.254-513.528 513.528-513.528c281.218 0 513.528 229.254 513.528 513.528s-232.31 513.528-513.528 513.528zM513.528-21.206c-259.821 0-470.734 210.913-470.734 470.734s210.913 467.678 470.734 467.678c259.821 0 470.734-210.913 470.734-470.734s-210.913-467.678-470.734-467.678zM482.961 467.869h-223.14v-36.681h268.991v363.749h-45.851z" />
<glyph unicode="&#xe93c;" glyph-name="trash2" horiz-adv-x="975" d="M481.882 721.927h14.342v-530.644h-14.342v530.644zM701.808 194.093l30.008 529.795 14.319-0.811-30.008-529.795-14.319 0.811zM604.704 191.327l10.362 530.538 14.339-0.28-10.362-530.538-14.339 0.28zM231.76 721.158l14.319 0.809 29.944-529.795-14.319-0.809-29.944 529.795zM347.422 721.729l14.339 0.292 10.812-530.538-14.339-0.292-10.812 530.538zM883.451 871.081h-232.336v88.919h-326.992v-88.919h-324.123v-14.342h91.787l86.050-854.768h51.63l5.737-65.972h504.829l5.737 65.972h51.63l86.050 854.768h91.787v14.342h-91.787zM338.465 945.658h301.176v-74.577h-301.176v74.577zM725.692-49.658h-476.146l-5.737 51.63h487.619l-5.737-51.63zM783.059 16.314h-590.88l-8.605 77.445h608.090l-8.605-77.445zM794.532 108.101h-613.826l-74.577 748.639h765.849l-77.445-748.639z" />
<glyph unicode="&#xe93d;" glyph-name="x" d="M851.899 297.412c-94.655 154.891-189.311 271.059-223.731 309.782 0 0-4.303 4.303-8.605 8.605 17.21 17.21 30.118 30.118 47.328 47.328 47.328 43.025 124.773 120.471 197.916 167.798 21.513 8.605 38.723 21.513 38.723 21.513s12.908 8.605 30.118 21.513c12.908 8.605 4.303 4.303 60.235 43.025 8.605 8.605 21.513 12.908 21.513 25.815 0 4.303 0 8.605-4.303 12.908-12.908 17.21-129.076-43.025-176.403-68.84-94.655-51.63-146.286-77.445-172.101-98.958-47.328-30.118-90.353-55.933-124.773-81.748-30.118 30.118-64.538 68.84-107.563 107.563 0 0-154.891 141.983-275.361 141.983v0c0 0-64.538 4.303-124.773-25.815-8.605-8.605-17.21-12.908-21.513-21.513-17.21-25.815-4.303-64.538 0-77.445 30.118-73.143 146.286-98.958 279.664-172.101 34.42-17.21 60.235-38.723 98.958-64.538-12.908-12.908-25.815-21.513-30.118-30.118-17.21-17.21-107.563-90.353-206.521-197.916 0 0-141.983-154.891-141.983-275.361 0 0-4.303-64.538 25.815-124.773 4.303-8.605 12.908-17.21 21.513-25.815 25.815-17.21 64.538-4.303 77.445 0 73.143 30.118 98.958 146.286 172.101 279.664 25.815 47.328 60.235 86.050 120.471 167.798 12.908 17.21 43.025 55.933 86.050 103.261 51.63-43.025 129.076-116.168 215.126-206.521 43.025-47.328 120.471-124.773 167.798-197.916 12.908-17.21 25.815-34.42 25.815-34.42 4.303-4.303 12.908-17.21 21.513-34.42 8.605-12.908 4.303-4.303 43.025-60.235 8.605-8.605 12.908-21.513 25.815-21.513 4.303 0 8.605 0 12.908 4.303 17.21 12.908-43.025 129.076-68.84 176.403-60.235 103.261-86.050 150.588-103.261 180.706z" />
<glyph unicode="&#xe93e;" glyph-name="certificate" horiz-adv-x="824" d="M0 960v-821.102c0-3.17 0-3.17 0-6.341v0 0c0-3.17 3.17-6.341 3.17-6.341l183.876-183.876c3.17-3.17 6.341-3.17 9.511-3.17v0h3.17c0 0 0 0 0 0s0 0 0 0h624.545v1020.83h-824.272zM196.557-22.786l-155.344 155.344h155.344v-155.344zM792.57-32.297h-564.31l3.17 196.557h-199.728v764.037h760.867v-960.594zM129.981 823.678h263.133v-31.703h-263.133v31.703zM129.981 256.198h263.133v-31.703h-263.133v31.703zM129.981 731.74h149.003v-31.703h-149.003v31.703zM323.368 731.74h171.195v-31.703h-171.195v31.703zM706.972 642.972h-583.331v-313.858h583.331v313.858zM462.861 360.817h-307.517v41.214h307.517v-41.214zM462.861 424.223h-307.517v44.384h307.517v-44.384zM462.861 493.969h-307.517v44.384h307.517v-44.384zM462.861 560.545h-307.517v50.724h307.517v-50.724zM561.139 360.817h-76.087v41.214h76.087v-41.214zM561.139 424.223h-76.087v44.384h76.087v-44.384zM561.139 493.969h-76.087v44.384h76.087v-44.384zM561.139 560.545h-76.087v50.724h76.087v-50.724zM675.269 360.817h-88.768v41.214h88.768v-41.214zM675.269 424.223h-88.768v44.384h88.768v-44.384zM675.269 493.969h-88.768v44.384h88.768v-44.384zM675.269 560.545h-88.768v50.724h88.768v-50.724zM656.248 230.836c-3.17 0-3.17 3.17-3.17 3.17s0 3.17 0 6.341c6.341 6.341 6.341 19.022 0 25.362s-15.851 9.511-25.362 6.341c-3.17 0-3.17 0-6.341 0 0 0-3.17 3.17-3.17 6.341 0 9.511-6.341 19.022-15.851 22.192s-19.022 0-25.362-9.511v0c0-3.17-3.17-3.17-6.341-3.17s0 3.17 0 6.341c-6.341 9.511-15.851 12.681-25.362 9.511s-15.851-12.681-15.851-22.192c0-3.17-3.17-3.17-3.17-6.341s-3.17-3.17-6.341 0c-9.511 3.17-19.022 0-25.362-6.341s-6.341-19.022 0-25.362c3.17-3.17 0-3.17 0-6.341 0 0 0-3.17-3.17-3.17-9.511-3.17-15.851-12.681-15.851-22.192s6.341-19.022 15.851-22.192c3.17 0 3.17-3.17 3.17-3.17s0-3.17 0-6.341c-6.341-6.341-6.341-19.022 0-25.362s15.851-9.511 25.362-6.341c3.17 0 3.17 0 6.341 0s3.17-3.17 3.17-6.341c0-9.511 6.341-19.022 15.851-22.192 3.17 0 3.17 0 6.341 0 6.341 0 12.681 3.17 19.022 9.511 0 3.17 3.17 3.17 6.341 3.17s3.17 0 6.341-3.17c6.341-9.511 15.851-12.681 25.362-9.511s15.851 12.681 15.851 22.192c0 3.17 3.17 3.17 3.17 6.341 0 0 3.17 3.17 6.341 0 9.511-3.17 19.022 0 25.362 6.341s6.341 19.022 0 25.362c-3.17 3.17 0 3.17 0 6.341 0 0 0 3.17 3.17 3.17 9.511 3.17 15.851 9.511 15.851 22.192-9.511 9.511-15.851 15.851-22.192 19.022zM592.842 284.731c3.17 3.17 6.341 3.17 6.341 3.17s3.17-3.17 3.17-6.341c0-3.17 0-6.341 3.17-9.511-6.341 3.17-12.681 6.341-22.192 6.341 6.341 0 6.341 3.17 9.511 6.341zM545.288 281.56c0 3.17 3.17 6.341 3.17 6.341s3.17 0 6.341-3.17c3.17-3.17 3.17-6.341 6.341-6.341-6.341 0-12.681-3.17-19.022-6.341 3.17 3.17 3.17 6.341 3.17 9.511zM510.415 256.198c0 0 3.17 3.17 6.341 3.17s6.341 0 9.511 0c-6.341-6.341-9.511-9.511-12.681-15.851 0 3.17-3.17 6.341-3.17 9.511-3.17 0 0 3.17 0 3.17zM507.245 199.133c-3.17 3.17-6.341 3.17-9.511 6.341-3.17 0-3.17 3.17-3.17 6.341s0 3.17 3.17 6.341c3.17 0 6.341 3.17 9.511 6.341 0-3.17 0-6.341 0-9.511 0-6.341 0-9.511 0-15.851zM516.755 161.090c-3.17 0-6.341 0-6.341 3.17 0 0-3.17 3.17 0 6.341s3.17 6.341 3.17 9.511c3.17-6.341 6.341-12.681 12.681-15.851-3.17 0-6.341 0-9.511-3.17zM557.969 138.898c-3.17-3.17-6.341-3.17-6.341-3.17s-3.17 3.17-3.17 6.341c0 3.17 0 6.341-3.17 9.511 6.341-3.17 12.681-6.341 19.022-6.341-3.17-3.17-6.341-3.17-6.341-6.341zM602.353 142.068c0-3.17-3.17-6.341-3.17-6.341s-3.17 0-6.341 3.17c-3.17 3.17-3.17 6.341-6.341 6.341 6.341 0 12.681 3.17 22.192 6.341-3.17-3.17-6.341-6.341-6.341-9.511zM573.82 157.92c-28.533 0-50.724 22.192-50.724 50.724s22.192 50.724 50.724 50.724 50.724-22.192 50.724-50.724-22.192-50.724-50.724-50.724zM640.396 164.26c0 0-3.17-3.17-6.341-3.17s-6.341 0-9.511 0c6.341 6.341 9.511 12.681 12.681 19.022 0-3.17 3.17-6.341 3.17-9.511s0-6.341 0-6.341zM640.396 249.858c-3.17-3.17-3.17-6.341-3.17-9.511-3.17 6.341-6.341 12.681-12.681 19.022 3.17 0 6.341 0 9.511 0s6.341 0 6.341-3.17c0 0 0-3.17 0-6.341zM649.907 205.474c-3.17 0-6.341-3.17-9.511-6.341 0 3.17 0 6.341 0 12.681 0 3.17 0 6.341 0 12.681 3.17-3.17 6.341-3.17 9.511-6.341 3.17 0 3.17-3.17 3.17-6.341s0-6.341-3.17-6.341zM434.328 256.198h44.384v-31.703h-44.384v31.703z" />
<glyph unicode="&#xe93f;" glyph-name="bill" horiz-adv-x="1041" d="M957.597 848.164c-24.464 24.464-66.403 24.464-90.867 0l-164.259-164.259v73.392l-199.208 202.703h-426.375c-41.939 0-76.887-34.949-76.887-76.887v-870.225c0-41.939 34.949-76.887 76.887-76.887h552.191c41.939 0 76.887 34.949 76.887 76.887v363.468l318.034 318.034c24.464 24.464 24.464 66.403 0 90.867l-66.403 62.908zM678.007 12.887c0-27.959-24.464-52.423-52.423-52.423h-548.696c-27.959 0-52.423 24.464-52.423 52.423v870.225c0 27.959 24.464 52.423 52.423 52.423h373.952c0-3.495 0-6.99 0-6.99v-195.713c0-13.98 10.485-24.464 24.464-24.464h195.713c3.495 0 6.99 0 6.99 0v-45.433l-359.973-363.468c0 0-3.495-3.495-3.495-3.495-3.495-3.495-6.99-6.99-10.485-13.98l-3.495-10.485c0-3.495 0-3.495 0-6.99l-34.949-143.29c-3.495-10.485 0-20.969 6.99-27.959 3.495-3.495 10.485-6.99 17.474-6.99 3.495 0 3.495 0 6.99 0l153.775 41.939c0 0 3.495 0 3.495 0 6.99 3.495 13.98 6.99 20.969 13.98l206.198 206.198v-335.509zM454.334 170.157v0 0 0zM464.819 173.652c0 0 0 3.495-3.495 3.495l-111.836 115.331c0 0 0 0 0 0l436.86 436.86 118.826-118.826-440.355-436.86z" />
<glyph unicode="&#xe940;" glyph-name="dollar" horiz-adv-x="616" d="M265.481 819.966h119.613c81.687 0 148.786-52.513 172.125-125.447h61.265c-23.339 105.026-119.613 183.795-230.473 183.795h-40.843v81.687h-58.348v-81.687h-23.339c-131.282 0-239.225-107.943-239.225-239.225s107.943-210.051 239.225-210.051h84.604c99.191 0 180.877-81.687 180.877-180.877s-81.687-180.877-180.877-180.877h-119.613c-81.687 0-148.786 52.513-172.125 125.447h-58.348c23.339-105.026 119.613-183.795 230.473-183.795h52.513v-75.852h58.348v75.852h8.752c131.282 0 239.225 107.943 239.225 239.225s-107.943 239.225-239.225 239.225h-84.604c-99.191 0-180.877 52.513-180.877 151.704s81.687 180.877 180.877 180.877z" />
<glyph unicode="&#xe941;" glyph-name="receipt" horiz-adv-x="1072" d="M1071.767 768.933l-2.985 17.913c-5.971 23.883-5.971 44.781-8.956 68.665 0 11.942 0 26.869-5.971 44.781-2.985 8.956-8.956 23.883-20.898 35.825-14.927 14.927-32.84 20.898-44.781 20.898h-38.81c-238.834 2.985-504.536 5.971-531.405 0-17.913-2.985-29.854-11.942-29.854-14.927-5.971-5.971-14.927-14.927-20.898-29.854-2.985-5.971-5.971-14.927-5.971-23.883 0-2.985 0-5.971 0-5.971 0-5.971 0-188.082 0-537.376 0-5.971 0-11.942 0-23.883 0 0 0-47.767-11.942-101.504-116.431 0-197.038 0-208.98 0-14.927 0-26.869-2.985-26.869-5.971-5.971-2.985-17.913-5.971-29.854-14.927-14.927-14.927-17.913-35.825-17.913-47.767 0-23.883-2.985-38.81-2.985-53.738 0-26.869 0-44.781-5.971-62.694-2.985-8.956-5.971-20.898-11.942-32.84-8.956-14.927-23.883-29.854-41.796-38.81 0 0-2.985-8.956-2.985-14.927 2.985-5.971 8.956-11.942 14.927-11.942h573.201c0 0 2.985 0 2.985 0 8.956 2.985 14.927 5.971 20.898 8.956 2.985 0 17.913 11.942 26.869 32.84 2.985 8.956 5.971 23.883 8.956 41.796h194.052l2.985 5.971c32.84 38.81 59.708 83.592 77.621 128.373 17.913 50.752 26.869 104.49 35.825 143.3 0 2.985 2.985 14.927 2.985 29.854 5.971 50.752 8.956 214.95 2.985 438.857l107.475 2.985zM626.939 150.95c0-2.985 0-5.971 0-8.956 0-8.956 0-20.898 0-29.854 0-2.985 0-5.971 0-11.942 0-8.956 0-14.927 0-23.883 0-2.985 0-5.971 0-8.956 0-8.956 0-14.927-2.985-23.883-2.985-26.869-5.971-44.781-8.956-50.752-5.971-14.927-17.913-20.898-17.913-20.898-2.985-2.985-5.971-2.985-11.942-5.971h-525.434c5.971 5.971 11.942 11.942 14.927 20.898 8.956 14.927 11.942 29.854 14.927 41.796 5.971 23.883 5.971 41.796 5.971 68.665 0 14.927 0 32.84 2.985 53.738 0 11.942 2.985 20.898 8.956 26.869s11.942 5.971 17.913 8.956c0 0 8.956 2.985 20.898 2.985s86.577 0 200.023 0v0h17.913c74.636 0 164.198 0 265.703 0-2.985-11.942-2.985-26.869-2.985-38.81zM653.808 55.417c2.985 20.898 2.985 41.796 2.985 68.665 0 0 0 0 0 2.985 0 11.942 0 20.898 0 32.84 0 2.985 0 2.985 0 5.971 0 8.956 0 17.913 0 26.869h17.913c8.956-2.985 14.927-8.956 20.898-11.942 2.985-2.985 11.942-11.942 17.913-23.883s5.971-20.898 5.971-32.84c0-8.956 0-17.913 0-29.854s2.985-23.883 5.971-35.825h-71.65zM934.437 336.047c-2.985-11.942-2.985-26.869-2.985-26.869-5.971-38.81-14.927-89.563-32.84-137.329-14.927-38.81-38.81-77.621-68.665-113.446h-71.65c-2.985 11.942-8.956 26.869-8.956 38.81s0 17.913 0 26.869 0 26.869-5.971 44.781c-8.956 17.913-17.913 29.854-23.883 32.84-8.956 8.956-20.898 14.927-35.825 20.898h-41.796c-95.534 0-185.096 0-259.732 0 0 0 0 0 0 0 8.956 53.738 11.942 101.504 11.942 101.504 0 11.942 0 20.898 0 23.883 0 474.682 0 534.391 0 543.347 0 2.985 0 8.956 2.985 11.942 2.985 8.956 8.956 11.942 11.942 14.927 0 0 8.956 5.971 17.913 8.956 14.927 2.985 182.111 5.971 510.507 0 5.971-304.513 5.971-531.405-2.985-591.114zM967.277 927.16h20.898c5.971 0 14.927-2.985 23.883-11.942 5.971-5.971 8.956-14.927 11.942-23.883 5.971-14.927 5.971-26.869 5.971-35.825v-2.985c0-17.913 2.985-35.825 5.971-53.738h-65.679c-2.985 41.796-2.985 83.592-2.985 128.373zM519.464 759.977h119.417v-35.825h-119.417v35.825zM570.216 670.414h262.717v-35.825h-262.717v35.825zM492.595 583.837h310.484v-35.825h-310.484v35.825zM492.595 500.245h337.353v-35.825h-337.353v35.825zM492.595 410.682h283.615v-35.825h-283.615v35.825zM471.697 327.090h337.353v-35.825h-337.353v35.825z" />
<glyph unicode="&#xe942;" glyph-name="document2" horiz-adv-x="704" d="M243.2 960l-243.2-217.6v-806.4h704v1024h-460.8zM672-32h-640v736h256v224h384v-960zM352 704h256v-32h-256v32zM96 576h512v-32h-512v32zM96 480h512v-32h-512v32zM96 352h512v-32h-512v32zM96 128h288v-32h-288v32zM96 256h512v-32h-512v32z" />
<glyph unicode="&#xe943;" glyph-name="plus-square" d="M968.177 904.177v0c-34.889 36.634-83.734 57.567-136.068 55.823h-640.218c-50.589 0-99.434-19.189-136.068-55.823s-55.823-85.479-55.823-136.068v-640.218c0-50.589 19.189-99.434 55.823-136.068 34.889-36.634 85.479-57.567 136.068-55.823h640.218c106.412 0 191.891 85.479 191.891 191.891v640.218c0 50.589-19.189 99.434-55.823 136.068zM853.043 405.261c0-22.678-19.189-41.867-41.867-41.867h-214.569v-212.825c0-22.678-19.189-41.867-41.867-41.867h-85.479c-22.678 0-41.867 19.189-41.867 41.867v212.825h-214.569c-22.678 0-41.867 19.189-41.867 41.867v85.479c0 22.678 19.189 41.867 41.867 41.867h212.825v214.569c0 22.678 19.189 41.867 41.867 41.867h85.479c22.678 0 41.867-19.189 41.867-41.867v-212.825h212.825c22.678 0 41.867-19.189 41.867-41.867v-87.223z" />
<glyph unicode="&#xe944;" glyph-name="minus-square" d="M968.177 904.177v0c-34.889 36.634-83.734 57.567-136.068 55.823h-640.218c-50.589 0-99.434-19.189-136.068-55.823s-55.823-85.479-55.823-136.068v-640.218c0-50.589 19.189-99.434 55.823-136.068 34.889-36.634 85.479-57.567 136.068-55.823h640.218c106.412 0 191.891 85.479 191.891 191.891v640.218c0 50.589-19.189 99.434-55.823 136.068zM853.043 405.261c0-22.678-19.189-41.867-41.867-41.867h-598.351c-22.678 0-41.867 19.189-41.867 41.867v85.479c0 22.678 19.189 41.867 41.867 41.867h598.351c22.678 0 41.867-19.189 41.867-41.867v-85.479z" />
<glyph unicode="&#xe945;" glyph-name="dollar2" horiz-adv-x="456" d="M255.102 58.161v-122.161h-57.488v118.568c-79.046 0-143.719 14.372-194.021 46.709v97.011c21.558-17.965 50.302-35.93 89.825-46.709s71.86-17.965 104.196-17.965v287.439c-82.639 35.93-136.533 75.453-161.684 107.789s-35.93 71.86-35.93 118.568c0 53.895 17.965 100.604 53.895 140.126s82.639 64.674 140.126 71.86v100.604h57.488v-100.604c71.86-3.593 125.754-14.372 150.905-32.337v-97.011c-32.337 35.93-82.639 50.302-147.312 53.895v-298.218c79.046-35.93 129.347-71.86 158.091-107.789s43.116-75.453 43.116-118.568c0-53.895-17.965-97.011-53.895-132.94s-82.639-57.488-147.312-68.267zM197.614 518.063v262.288c-32.337-7.186-57.488-21.558-75.453-43.116s-28.744-46.709-28.744-79.046c0-32.337 7.186-57.488 21.558-79.046 17.965-21.558 43.116-39.523 82.639-61.081zM255.102 388.716v-255.102c71.86 14.372 107.789 53.895 107.789 118.568 0 50.302-35.93 97.011-107.789 136.533z" />
<glyph unicode="&#xe946;" glyph-name="time2" d="M512 960c-282.819 0-512-229.181-512-512s229.181-512 512-512 512 229.181 512 512c0 282.819-229.181 512-512 512zM512 9.143c-241.371 0-438.857 197.486-438.857 438.857s197.486 438.857 438.857 438.857 438.857-197.486 438.857-438.857c0-241.371-197.486-438.857-438.857-438.857zM487.619 801.524h24.381v-365.714h-24.381v365.714zM496.449 399.682l5.912 23.652 293.284-73.314-5.912-23.652-293.284 73.314z" />
<glyph unicode="&#xe947;" glyph-name="x-thin" d="M1024 911.238l-48.762 48.762-459.755-459.755-466.721 459.755-48.762-48.762 459.755-466.721-459.755-459.755 48.762-48.762 466.721 459.755 459.755-459.755 48.762 48.762-459.755 459.755z" />
<glyph unicode="&#xe948;" glyph-name="time3" d="M581.944 447.88c0 38.523-31.3 69.824-69.824 69.824-9.872 0-19.262-2.167-27.689-5.779l-61.156 61.156-32.263-32.263 59.711-59.711c-5.297-9.872-8.427-21.188-8.427-33.226 0-38.523 31.3-69.824 69.824-69.824 12.039 0 23.355 3.13 33.226 8.427l195.988-195.988 32.263 32.263-197.192 197.192c3.371 8.668 5.538 18.058 5.538 27.929zM406.181 403.578l-172.874-129.776 35.153-48.154 174.318 130.98c-16.132 12.039-28.652 28.17-36.597 46.95zM543.661 557.912l-0.722 187.802h-62.36l0.722-189.005c20.225 5.779 41.653 6.26 62.36 1.204zM512.12 960c-282.425 0-512.12-229.696-512.12-512.12s229.696-512.12 512.12-512.12 512.12 229.696 512.12 512.12-229.937 512.12-512.12 512.12zM512.12 27.493c-231.863 0-420.627 188.524-420.627 420.387s188.765 420.627 420.627 420.627c231.863 0 420.627-188.765 420.627-420.627s-188.765-420.387-420.627-420.387z" />
<glyph unicode="&#xe949;" glyph-name="arrow-right" horiz-adv-x="1083" d="M593.529 960l489.172-515.261-489.172-508.739-143.49 136.968 273.936 280.459h-723.975v195.669h717.452l-267.414 273.936z" />
<glyph unicode="&#xe94a;" glyph-name="arrow-down" horiz-adv-x="968" d="M968.482 398.651l-487.325-462.651-481.157 462.651 129.542 135.711 265.253-259.084 6.169 684.723h185.060l-6.169-678.554 265.253 252.916z" />
<glyph unicode="&#xe94b;" glyph-name="arrow-left" horiz-adv-x="1083" d="M489.172 960l-489.172-515.261 495.694-508.739 136.968 136.968-267.414 280.459h717.452v195.669h-717.452l267.414 273.936z" />
<glyph unicode="&#xe94c;" glyph-name="x2" d="M1024 874.667l-85.333 85.333-426.667-426.667-426.667 426.667-85.333-85.333 426.667-426.667-426.667-426.667 85.333-85.333 426.667 426.667 426.667-426.667 85.333 85.333-426.667 426.667z" />
<glyph unicode="&#xe94d;" glyph-name="arrow-up" horiz-adv-x="968" d="M968.482 497.349l-487.325 462.651-481.157-468.819 129.542-129.542 265.253 252.916 6.169-678.554h185.060l-6.169 678.554 265.253-252.916z" />
<glyph unicode="&#xe94e;" glyph-name="tree" horiz-adv-x="1290" d="M508.092 14.168l-437.74 945.832-70.351-31.267 461.191-992.733h828.58v78.168z" />
</font>
</defs>
</svg>
