<svg xmlns="http://www.w3.org/2000/svg" viewBox="0 0 1024.72 1024.72"><defs><style>.a{fill:#26c926;}</style></defs><title>check</title><path class="a" d="M431.2,541.35,732.67,239.88,846.45,353.65,431.2,768.91,177.55,515.26,291.33,401.48,431.2,541.35Zm0,191.32L810.94,352.93l-78.27-77.54L431.2,577.59,291.33,437.72l-78.27,77.54L431.2,732.67Zm593.52-220.31c0,282.63-229.73,512.36-512.36,512.36S0,795,0,512.36,229.73,0,512.36,0C794.27,0,1024,229.73,1024.72,512.36ZM512.36,992.84c264.52,0,480.48-216,480.48-480.48S777.6,31.89,512.36,31.89c-264.51,0-480.47,215.23-480.47,480.47,0,264.52,215.23,480.48,480.47,480.48Z"/></svg>