<?xml version="1.0" ?>
<!DOCTYPE svg  PUBLIC '-//W3C//DTD SVG 1.1//EN'  'http://www.w3.org/Graphics/SVG/1.1/DTD/svg11.dtd'>
  <svg enable-background="new 0 0 48 48" height="48px" version="1.1" viewBox="0 0 48 48" width="48px" xml:space="preserve" xmlns="http://www.w3.org/2000/svg" xmlns:xlink="http://www.w3.org/1999/xlink">
  <g id="Layer_3"><g>
  <path d="M17.692,27.176V0.031H5.077v27.145c-3.042,2.036-5.046,5.503-5.046,9.439    c0,6.271,5.083,11.354,11.354,11.354s11.354-5.083,11.354-11.354C22.738,32.679,20.735,29.212,17.692,27.176z M11.385,45.445    c-4.877,0-8.831-3.953-8.831-8.83c0-3.521,2.064-6.553,5.046-7.969V2.555h7.569v26.092c2.982,1.416,5.046,4.447,5.046,7.969    C20.215,41.492,16.262,45.445,11.385,45.445z" fill="#6a8b9c"/>
  <path d="M42.923,27.176V0.031H30.308v27.145c-3.042,2.036-5.046,5.503-5.046,9.439    c0,6.271,5.083,11.354,11.354,11.354s11.354-5.083,11.354-11.354C47.969,32.679,45.965,29.212,42.923,27.176z M36.615,45.445    c-4.877,0-8.831-3.953-8.831-8.83c0-3.522,2.063-6.553,5.047-7.969V2.554h7.568v26.093c2.982,1.416,5.046,4.446,5.046,7.969    C45.445,41.492,41.492,45.445,36.615,45.445z" fill="#6a8b9c"/>
  <path d="M38.534,30.637V10.124h-3.837v20.513c-2.539,0.815-4.39,3.168-4.39,5.979c0,3.483,2.823,6.308,6.308,6.308    c3.483,0,6.308-2.824,6.308-6.308C42.923,33.805,41.073,31.452,38.534,30.637z" fill="#6a8b9c"/>
  <path d="M13.304,30.661V10.124H9.466v20.488c-2.58,0.792-4.468,3.163-4.468,6.003c0,3.483,2.824,6.308,6.308,6.308    s6.308-2.824,6.308-6.308C17.614,33.833,15.802,31.5,13.304,30.661z" fill="#6a8b9c"/>
  </g>
  </g>
</svg>