<?xml version="1.0" encoding="utf-8"?>
<!-- Generator: Adobe Illustrator 22.0.1, SVG Export Plug-In . SVG Version: 6.00 Build 0)  -->
<svg version="1.1" id="Layer_1" xmlns="http://www.w3.org/2000/svg" xmlns:xlink="http://www.w3.org/1999/xlink" x="0px" y="0px"
	 viewBox="0 0 800 600" style="enable-background:new 0 0 800 600;" xml:space="preserve">
<style type="text/css">
	.st0{fill:#414142;}
	.st1{fill:#D81E5F;}
	.st2{fill:#1FA8DF;}
	.st3{fill:url(#SVGID_1_);}
</style>
<g>
	<g>
		<path class="st0" d="M208.2,446.1c-3.1-0.6-5.6-1.1-5.6-3.4c0-2.9,3.4-3.7,5.5-3.7c2.1,0,4.2,0.3,5.5,2.5l1.1-0.7
			c-1.8-2.7-4.1-3.1-6.7-3.1c-3,0-7,1.2-6.9,5.1c0,3.4,3.4,4,6.7,4.7c3,0.6,6,1.2,6,3.9c0,3.2-3.6,3.9-5.8,3.9
			c-2.2,0-5.1-1.1-6.2-3.3l-1.3,0.6c1.4,2.8,4.6,4,7.5,4c3,0,7.2-1,7.2-5.1C215.4,447.4,211.7,446.8,208.2,446.1z"/>
		<rect x="221" y="438" class="st0" width="1.4" height="18.2"/>
		<path class="st0" d="M237.7,448.6l-7-10.6c-0.7,0-1,0-1.7,0v18.2h1.4V440l7,10.7h0.5l7-10.7v16.2h1.4V438h-1.7L237.7,448.6z"/>
		<path class="st0" d="M260.9,438c-2.7,0-5.3,0-8,0v18.2h1.4v-6.3h6.6C268.8,449.9,268.8,438,260.9,438z M260.9,448.6h-6.6v-9.4h6.6
			C267,439.3,267,448.6,260.9,448.6z"/>
		<polygon class="st0" points="273.9,438 272.5,438 272.5,456.2 284.2,456.2 284.2,454.9 273.9,454.9 		"/>
		<rect x="289.5" y="438" class="st0" width="1.4" height="18.2"/>
		<polygon class="st0" points="297.5,456.2 298.9,456.2 298.9,448 309.4,448 309.4,446.6 298.9,446.6 298.9,439.4 309.8,439.4 
			309.8,438 297.5,438 		"/>
		<polygon class="st0" points="322.5,447.6 316.3,438 314.7,438 314.7,438 321.8,448.9 321.8,456.2 323.2,456.2 323.2,448.9 
			330.4,438 330.4,438 328.7,438 		"/>
		<rect x="335.5" y="438" class="st0" width="1.4" height="18.2"/>
		<polygon class="st0" points="356.4,453 344.2,438 343.6,438 343.6,456.2 345,456.2 345,441.1 357.3,456.2 357.8,456.2 357.8,438 
			356.4,438 		"/>
		<path class="st0" d="M372.2,447.9h6.4v5.1c-1.6,1.4-3.6,2.1-5.5,2.1c-5.3,0-8.1-3.7-8.1-8c0-4.2,2.7-8.1,8.1-8.1
			c2.1,0,4.3,0.8,5.9,2.3l0.8-0.9c-1.8-1.8-4.3-2.7-6.7-2.7c-5.5,0-9.4,3.7-9.4,9.4c0,5,3.2,9.3,9.4,9.3c2.7,0,5-1,6.9-2.9v-6.8
			h-7.7V447.9z"/>
		<polygon class="st0" points="394.6,439.2 401.2,439.2 401.2,456.2 402.6,456.2 402.6,439.2 409.2,439.2 409.2,438 394.6,438 		"/>
		<polygon class="st0" points="427.5,446.6 415.9,446.6 415.9,438 414.5,438 414.5,456.2 415.9,456.2 415.9,447.9 427.5,447.9 
			427.5,456.2 428.9,456.2 428.9,438 427.5,438 		"/>
		<polygon class="st0" points="436.9,447.7 447.6,447.7 447.6,446.4 436.9,446.4 436.9,439.3 448.1,439.3 448.1,438 435.5,438 
			435.5,456.2 448.4,456.2 448.4,454.8 436.9,454.8 		"/>
		<path class="st0" d="M471.9,438c-2.7,0-5.3,0-8,0v18.2h1.4v-6.3h6.6C479.8,449.9,479.8,438,471.9,438z M471.9,448.6h-6.6v-9.4h6.6
			C478,439.3,478,448.6,471.9,448.6z"/>
		<path class="st0" d="M497.6,443.6c0-2.8-2-5.7-6-5.7c-2.7,0-5.3,0-8,0v18.2h1.4v-6.9h5l6.3,6.9h1.8l-6.4-7
			C495.7,449.2,497.6,446.6,497.6,443.6z M485,448v-8.7h6.6c3,0,4.5,2.2,4.5,4.4c0,2.6-1.4,4.4-4.6,4.4H485z"/>
		<path class="st0" d="M511.5,437.7c-6.1,0-9.2,4.5-9.2,9.4c0,4.8,3.1,9.5,9.2,9.5c6.1,0,9.2-4.6,9.2-9.4
			C520.7,442.2,517.6,437.7,511.5,437.7z M511.5,455.2c-5.2,0-7.8-4-7.8-8.1c0-4.3,2.6-8.1,7.8-8.1c5.2,0,7.8,3.9,7.8,8.1
			C519.3,451.2,516.7,455.2,511.5,455.2z"/>
		<path class="st0" d="M535,439c2.1,0,4.1,0.8,5.7,2.3l1-0.8c-1.8-1.8-4.2-2.7-6.6-2.7c-6.3,0-9.4,4.6-9.4,9.4
			c0,4.9,3.2,9.2,9.4,9.2c2.4,0,4.8-0.9,6.6-2.7l-0.9-0.9c-1.6,1.5-3.6,2.3-5.7,2.3c-5.3,0-8-3.7-8-8C527,442.8,529.7,439,535,439z"
			/>
		<polygon class="st0" points="548.9,447.7 559.6,447.7 559.6,446.4 548.9,446.4 548.9,439.3 560.1,439.3 560.1,438 547.5,438 
			547.5,456.2 560.4,456.2 560.4,454.8 548.9,454.8 		"/>
		<path class="st0" d="M573.1,446.1c-3.1-0.6-5.6-1.1-5.6-3.4c0-2.9,3.4-3.7,5.5-3.7c2.1,0,4.2,0.3,5.5,2.5l1.1-0.7
			c-1.8-2.7-4.1-3.1-6.7-3.1c-3,0-7,1.2-6.9,5.1c0,3.4,3.4,4,6.7,4.7c3,0.6,6,1.2,6,3.9c0,3.2-3.6,3.9-5.8,3.9
			c-2.2,0-5.1-1.1-6.2-3.3l-1.3,0.6c1.4,2.8,4.6,4,7.5,4c3,0,7.2-1,7.2-5.1C580.2,447.4,576.6,446.8,573.1,446.1z"/>
		<path class="st0" d="M592.1,446.1c-3.1-0.6-5.6-1.1-5.6-3.4c0-2.9,3.4-3.7,5.5-3.7c2.1,0,4.2,0.3,5.5,2.5l1.1-0.7
			c-1.8-2.7-4.1-3.1-6.7-3.1c-3,0-7,1.2-6.9,5.1c0,3.4,3.4,4,6.7,4.7c3,0.6,6,1.2,6,3.9c0,3.2-3.6,3.9-5.8,3.9
			c-2.2,0-5.1-1.1-6.2-3.3l-1.3,0.6c1.4,2.8,4.6,4,7.5,4c3,0,7.2-1,7.2-5.1C599.3,447.4,595.7,446.8,592.1,446.1z"/>
	</g>
	<g>
		<path class="st1" d="M243.3,409.8c0-11.9-9.7-14.6-20.1-15.9c-6-0.7-11.1-1.9-11.1-6.3c0-3.7,3.3-6.6,10.3-6.6
			c5.4,0,10.1,2.7,11.8,5.5l7.5-3.8c-3.8-7.7-11.8-9.9-19.6-9.9c-9.2,0.1-19.3,4.3-19.3,14.5c0,11.2,9.4,13.9,19.6,15.1
			c6.6,0.7,11.5,2.6,11.5,7.3c0,5.4-5.6,7.5-11.5,7.5c-6,0-11.8-2.4-14-7.9l-7.8,4.1c3.7,9.1,11.5,12.2,21.7,12.2
			C233.5,425.7,243.3,420.9,243.3,409.8z"/>
		<rect x="250.6" y="374.6" class="st1" width="9.3" height="49.8"/>
		<polygon class="st1" points="319.3,424.4 319.3,374.6 308.5,374.6 292.9,396.1 277.4,374.6 266.5,374.6 266.5,375.4 291.8,409.9 
			293.6,409.9 309.9,388.3 309.9,424.4 		"/>
		<path class="st1" d="M351.6,374.5c-7.8,0-15.7,0.1-23.5,0.1v8.9h23.5c12,0,12,17.6,0,17.6h-23.5v23.3h9.4v-14.7h14.1
			C376,409.7,375.9,374.5,351.6,374.5z"/>
		<polygon class="st1" points="385.6,374.6 376.2,374.6 376.2,424.4 411.2,424.4 411.2,415.7 385.6,415.7 		"/>
		<path class="st2" d="M462.3,416.7c-12.3,0-17.1-8.6-17.1-16.9c-0.1-8.3,5.1-17.3,17.1-17.3c4.3,0,8.8,1.5,12,4.7l6.3-6
			c-5.1-5.1-11.5-7.6-18.3-7.6c-18,0-26.5,13.2-26.4,26.3c0.1,12.9,7.9,25.7,26.4,25.7c7.2,0,13.8-2.3,18.9-7.4l-6.4-6.5
			C471.5,414.9,466.6,416.7,462.3,416.7z"/>
		<rect x="486.6" y="374.6" class="st2" width="9.3" height="49.8"/>
		<path class="st2" d="M504.1,383.1h15.8v41.3h9.4v-41.3h15.8v-8.5c-14.4,0-26.6,0-41,0V383.1z"/>
		<polygon class="st2" points="550.9,375 566.1,397.9 571.4,389.7 562.1,374.6 550.9,374.6 		"/>
		<polygon class="st2" points="588,374.6 570.1,402.4 570.1,424.4 579.5,424.4 579.5,403.8 599.3,375 599.3,374.6 		"/>
		<polygon class="st1" points="427.2,374.6 417.9,374.6 427.2,381.1 		"/>
		<polygon class="st1" points="417.9,424.4 427.2,424.4 427.2,389.9 417.9,383.3 		"/>
	</g>
	<linearGradient id="SVGID_1_" gradientUnits="userSpaceOnUse" x1="217.7835" y1="203.5213" x2="604.8132" y2="324.8091">
		<stop  offset="0" style="stop-color:#D81A5F"/>
		<stop  offset="0.5" style="stop-color:#5F56A3"/>
		<stop  offset="1" style="stop-color:#1FA8DF"/>
	</linearGradient>
	<path class="st3" d="M584.2,348.2v-173H577v-15.8h-33.1v15.8h-7.2V341h-11.3v-76.5c1.4-0.9,2.4-2.4,2.4-4.2c0-2.7-2.2-4.9-5-4.9
		c-1.6,0-3.1,0.8-4,2h-42.4c-0.9-1.2-2.3-2-4-2c-2.7,0-5,2.2-5,4.9c0,1.7,0.9,3.2,2.2,4.1v78.5h-12.3v-48.5h-17.1l-0.4-84.9h-14.7
		v-8.8h-7.3v-57.3h-18.5v57.3h-7.3v8.8h-14.7V291c-1.7,0.5-3,1.8-3.4,3.5h-34.4c-0.4-1.6-1.6-2.9-3.2-3.4v-39.6
		c1.1-0.9,1.8-2.3,1.8-3.8c0-2.4-1.7-4.4-4-4.9l-0.4-0.6c-4.1-6.6-11.2-10.4-19-10.1c-7.3,0.3-13.8,4.1-17.6,10.3
		c-2.7,0-4.9,2.2-4.9,4.9c0,1.9,1.1,3.5,2.6,4.3v94.1h-19.4V216v-4.6h-4.6h-55v136.8c-2.3,0.9-4,3.1-4,5.7c0,3.4,2.7,6.1,6.1,6.1
		c3.4,0,6.1-2.7,6.1-6.1c0-2.5-1.5-4.6-3.6-5.5V216h50.4v134.4h28.6v-98.7c1.6-0.8,2.7-2.5,2.7-4.4c0-1-0.3-2-0.9-2.8
		c3.1-4.6,8-7.4,13.6-7.6c5.9-0.2,11.3,2.6,14.7,7.4c-0.8,0.9-1.3,2-1.3,3.3c0,2.2,1.5,4.1,3.5,4.7v39.6c-1.1,0.9-1.9,2.3-1.9,3.8
		c0,2.7,2.2,5,5,5c1.4,0,2.7-0.6,3.6-1.6h36.7c0.9,1,2.2,1.6,3.6,1.6c2.7,0,5-2.2,5-5c0-1.5-0.7-2.8-1.7-3.7v-77.8h14.7v-8.8h7.3
		v-57.3h9.2v57.3h7.3v8.8h14.7l0.4,84.9h17v48.5h21.5v-82.6c1.3-0.5,2.3-1.6,2.7-2.9h41.1c0.5,1.2,1.4,2.2,2.6,2.8v80.8h20.6V179.8
		h7.2v-15.8h23.9v15.8h7.2v168.5c-2.1,1-3.6,3.1-3.6,5.5c0,3.4,2.7,6.1,6.1,6.1c3.4,0,6.1-2.7,6.1-6.1
		C588.1,351.2,586.5,349,584.2,348.2z M218,356.8c-1.6,0-2.9-1.3-2.9-2.9c0-1.6,1.3-2.9,2.9-2.9s2.9,1.3,2.9,2.9
		C220.9,355.5,219.6,356.8,218,356.8z M299.5,247.5c0,0.1,0,0.2-0.1,0.3c-0.3,1-1.2,1.8-2.3,1.8c-1.1,0-2.1-0.8-2.3-1.9
		c0-0.2-0.1-0.3-0.1-0.5c0-0.2,0-0.3,0.1-0.5c0.2-1.1,1.2-1.9,2.3-1.9c1.3,0,2.4,1.1,2.4,2.4C299.6,247.3,299.5,247.4,299.5,247.5z
		 M330.8,247.6c0-0.4,0.1-0.7,0.2-1c0.4-0.8,1.2-1.4,2.2-1.4c1.3,0,2.4,1.1,2.4,2.4c0,1.3-1.1,2.4-2.4,2.4c-0.6,0-1.1-0.2-1.5-0.5
		C331.2,249,330.8,248.4,330.8,247.6z M334.8,298.1c-1.3,0-2.4-1.1-2.4-2.4c0-1.3,1.1-2.4,2.4-2.4c0.6,0,1.1,0.2,1.5,0.6
		c0.2,0.2,0.3,0.3,0.5,0.5c0.2,0.4,0.4,0.8,0.4,1.3C337.2,297,336.1,298.1,334.8,298.1z M378.8,298.1c-1.3,0-2.4-1.1-2.4-2.4
		c0-0.5,0.1-0.9,0.4-1.3c0.2-0.3,0.4-0.5,0.7-0.7c0.4-0.3,0.8-0.4,1.3-0.4c1.3,0,2.4,1.1,2.4,2.4C381.1,297,380.1,298.1,378.8,298.1
		z M472.4,262.7c-1.3,0-2.4-1.1-2.4-2.4c0-1.3,1.1-2.4,2.4-2.4s2.4,1.1,2.4,2.4C474.8,261.7,473.7,262.7,472.4,262.7z M522.8,262.7
		c-1.3,0-2.4-1.1-2.4-2.4c0-1.3,1.1-2.4,2.4-2.4s2.4,1.1,2.4,2.4C525.2,261.7,524.1,262.7,522.8,262.7z M582,356.8
		c-1.6,0-2.9-1.3-2.9-2.9c0-1.6,1.3-2.9,2.9-2.9c1.6,0,2.9,1.3,2.9,2.9C585,355.5,583.7,356.8,582,356.8z"/>
</g>
</svg>
